<?xml version="1.0" encoding="utf-8"?>
<!-- Generator: Adobe Illustrator 22.0.0, SVG Export Plug-In . SVG Version: 6.00 Build 0)  -->
<svg version="1.1" id="Livello_1" xmlns="http://www.w3.org/2000/svg" xmlns:xlink="http://www.w3.org/1999/xlink" x="0px" y="0px"
	 width="140.1px" height="50px" viewBox="0 0 140.1 50" enable-background="new 0 0 140.1 50" xml:space="preserve">
<g id="Grupo_685" transform="translate(-95 -29)">
	<g id="Logo_White" transform="translate(149 59)">
		<g enable-background="new    ">
			<path fill="#292A34" d="M8,3.6C7,3.2,6.2,2.6,5.6,1.7L7.9-1C8.8,0.3,9.9,1,11.1,1c1.6,0,2.5-1,2.5-2.9v-8.3H7.4v-3.2h10.2v11.3
				c0,2.2-0.5,3.8-1.6,4.8c-1.1,1.1-2.6,1.6-4.7,1.6C10.1,4.3,9,4.1,8,3.6z"/>
			<path fill="#292A34" d="M34.9-9.5V4h-3.7V2.4c-0.5,0.6-1.1,1-1.9,1.3C28.6,4,27.8,4.2,27,4.2c-1.8,0-3.2-0.5-4.2-1.5
				c-1-1-1.6-2.5-1.6-4.5v-7.6h3.9v7c0,2.2,0.9,3.2,2.7,3.2c0.9,0,1.7-0.3,2.2-0.9C30.7-0.7,31-1.6,31-2.8v-6.7H34.9z"/>
			<path fill="#292A34" d="M44.1-9.2c0.8-0.3,1.7-0.5,2.7-0.5v3.6c-0.4,0-0.7-0.1-0.9-0.1c-1.1,0-2,0.3-2.6,0.9
				c-0.6,0.6-1,1.6-1,2.8V4h-3.9V-9.5h3.7v1.8C42.7-8.3,43.3-8.8,44.1-9.2z"/>
		</g>
		
			<linearGradient id="Trazado_5_1_" gradientUnits="userSpaceOnUse" x1="7.8439" y1="13.9027" x2="6.6979" y2="12.9027" gradientTransform="matrix(49.0371 0 0 -49.9977 -387.336 663.8564)">
			<stop  offset="0" style="stop-color:#2574FB"/>
			<stop  offset="1" style="stop-color:#6A11CA"/>
		</linearGradient>
		<path id="Trazado_5" fill="url(#Trazado_5_1_)" d="M-8.2,7.1c-4.9,3.3-10.3,5.6-16.1,6.8c-3,0.6-6.1,0.9-9.2,0.9
			c-4,0-8-0.5-11.9-1.6c-1-0.3-2-0.5-2.9-0.9v-0.3c0-0.9,0.1-1.8,0.1-2.7c0.6-9.1,4.4-17.7,10.6-24.3c0.8,0.6,1.5,1.2,2.2,1.8
			c-6,6.4-9.6,14.7-10,23.4c3.9,1.1,7.9,1.7,11.9,1.7c3.1,0,6.2-0.3,9.2-1c5.2-1.1,10.1-3.2,14.4-6.2C-9.7,5.9-9.1,6.7-8.2,7.1z
			 M-20.2,0.8c-0.9,0.4-1.8,0.7-2.7,1c-2.4-8.4-7.8-15.7-15.1-20.5c-5.3,5-9.2,11.3-11.3,18.3c-1.2,4-1.8,8.2-1.8,12.5
			c0,1,0.1,2.1,0.1,3c-0.4-0.1-0.8-0.2-1.2-0.2c-0.6,0-1.1,0.1-1.6,0.4c-0.1-1.1-0.1-2.2-0.1-3.3c0-4.7,0.7-9.4,2.2-13.9
			c2.2-6.9,6.1-13.2,11.3-18.3c0.7-0.7,1.5-1.4,2.2-2c0.9,0.5,1.7,1,2.5,1.6C-28.3-15.5-22.8-7.9-20.2,0.8z M-13.6,3.7
			c-0.9,0.5-1.7,1-2.7,1.4c-2.6,1.3-5.4,2.2-8.2,2.9c-0.9,0.2-1.8,0.4-2.8,0.5c-0.9,0.2-1.9,0.3-2.8,0.3c-1.1,0.1-2.2,0.2-3.4,0.2
			c-1.1,0-2.2-0.1-3.3-0.1c-0.9-0.1-1.9-0.2-2.8-0.3c-0.9-0.2-1.9-0.3-2.8-0.5c0.1-1,0.3-1.9,0.4-2.8c0.9,0.2,1.8,0.4,2.8,0.5
			c0.9,0.2,1.9,0.3,2.8,0.3c0.9,0.1,1.8,0.1,2.8,0.1c1,0,2-0.1,2.9-0.1c0.9-0.1,1.9-0.2,2.8-0.3c1-0.2,1.9-0.3,2.8-0.5
			c2.8-0.7,5.5-1.7,8.1-3c-0.4-1.9-1-3.7-1.7-5.5c-1.2-3.1-2.8-6.1-4.7-8.8c-0.5-0.8-1.1-1.6-1.7-2.3c-0.6-0.8-1.2-1.5-1.8-2.2
			c-3.6-3.9-7.8-7.1-12.6-9.5c0.7-0.7,1.1-1.6,1.1-2.5v-0.1c5.3,2.6,10.1,6.2,14,10.7c0.7,0.8,1.2,1.5,1.8,2.3
			c0.6,0.8,1.1,1.5,1.7,2.3c1.9,2.7,3.4,5.6,4.6,8.7c0.7,1.8,1.3,3.7,1.8,5.6C-14.1,1.8-13.9,2.8-13.6,3.7L-13.6,3.7z M-40.4-28.6
			c0,0.8-0.6,1.4-1.4,1.4c0,0,0,0,0,0c-0.8,0-1.4-0.6-1.4-1.4c0,0,0,0,0,0c0-0.8,0.6-1.4,1.4-1.4C-41-30-40.4-29.4-40.4-28.6
			C-40.4-28.6-40.4-28.6-40.4-28.6z M-5,4.1c0,0.8-0.6,1.4-1.4,1.4c0,0,0,0,0,0c-0.8,0-1.4-0.6-1.4-1.4c0-0.8,0.6-1.4,1.4-1.4
			C-5.6,2.7-5,3.4-5,4.1z M-50.7,18.6c0,0.8-0.6,1.4-1.4,1.4c-0.8,0-1.4-0.6-1.4-1.4c0,0,0,0,0,0c0-0.8,0.6-1.4,1.4-1.4c0,0,0,0,0,0
			C-51.4,17.2-50.7,17.8-50.7,18.6z"/>
	</g>
	<g enable-background="new    ">
		<path fill="#0077FF" d="M201.8,56V46h3.5c1.2,0,2.1,0.2,2.7,0.7c0.6,0.5,0.9,1.1,0.9,2c0,0.5-0.1,0.9-0.4,1.3
			c-0.3,0.4-0.6,0.6-1,0.8c0.5,0.1,0.9,0.4,1.2,0.8s0.4,0.9,0.4,1.4c0,1-0.3,1.7-0.9,2.2c-0.6,0.5-1.5,0.7-2.6,0.8H201.8z
			 M203.8,50.2h1.5c1,0,1.6-0.4,1.6-1.2c0-0.5-0.1-0.8-0.4-1c-0.3-0.2-0.7-0.3-1.2-0.3h-1.4V50.2z M203.8,51.7v2.7h1.8
			c0.5,0,0.9-0.1,1.1-0.3c0.3-0.2,0.4-0.5,0.4-1c0-0.9-0.5-1.4-1.4-1.4H203.8z"/>
		<path fill="#0077FF" d="M216.7,51.7h-3.9v2.7h4.6V56h-6.7V46h6.7v1.7h-4.6v2.4h3.9V51.7z"/>
		<path fill="#0077FF" d="M226.2,47.7h-3V56h-2.1v-8.3h-3V46h8.1V47.7z"/>
		<path fill="#0077FF" d="M232.2,53.9h-3.6l-0.7,2.1h-2.2l3.7-10h1.9l3.7,10h-2.2L232.2,53.9z M229.1,52.3h2.5l-1.2-3.7L229.1,52.3z
			"/>
	</g>
</g>
</svg>
