<svg
    width="25"
    height="24"
    viewBox="0 0 25 24"
    fill="none"
    xmlns="http://www.w3.org/2000/svg"
  >
    <path
      fill-rule="evenodd"
      clip-rule="evenodd"
      d="M7.07972 1.35022C7.205 1.22427 7.27482 1.05309 7.27355 0.874977C7.27925 0.695558 7.21086 0.521761 7.0846 0.394827C6.95833 0.267893 6.78545 0.199138 6.60698 0.204877C6.2416 0.211469 5.94697 0.507656 5.94042 0.874977C5.93915 1.05309 6.00897 1.22427 6.13425 1.35022C6.25953 1.47617 6.42981 1.54636 6.60698 1.54508C6.78415 1.54636 6.95443 1.47617 7.07972 1.35022ZM19.9175 16.2326C19.815 15.7692 19.7122 15.306 19.6352 14.8939C19.3988 13.9921 19.1077 13.1056 18.7635 12.2396C18.1966 10.7859 17.4654 9.40259 16.5842 8.11682C16.3279 7.73044 16.0731 7.36973 15.7895 7.00901C15.5073 6.62264 15.2255 6.28759 14.9178 5.92687C13.0631 3.80656 10.8053 2.08065 8.27717 0.85074V0.902067C8.27077 1.35771 8.08657 1.79259 7.76425 2.113C10.0051 3.23709 12.0214 4.76552 13.7127 6.62216C14.0205 6.95721 14.3008 7.29226 14.5845 7.65298L14.6789 7.77621C14.9089 8.07602 15.1541 8.3957 15.3792 8.73512C16.2743 10.0441 17.0142 11.4538 17.584 12.9354C17.9027 13.794 18.1681 14.6718 18.3787 15.5635C17.1677 16.1911 15.8847 16.6671 14.5585 16.9807C14.1236 17.0838 13.6867 17.1608 13.2253 17.2383C12.7845 17.3166 12.3393 17.3682 11.8922 17.3927C11.4308 17.4184 10.969 17.4441 10.5076 17.4441C10.0462 17.4441 9.6103 17.4184 9.17443 17.3927C8.7275 17.3667 8.28241 17.3151 7.84131 17.2383C7.37991 17.1613 6.94405 17.0838 6.50818 16.9807C6.43112 17.4174 6.35406 17.8566 6.30301 18.3204C6.67602 18.4089 7.06921 18.4781 7.44856 18.5449L7.63614 18.578C8.07703 18.6563 8.52221 18.7079 8.96927 18.7325L8.97068 18.7325C9.48309 18.7582 9.99516 18.7838 10.5076 18.7838C11.046 18.7838 11.5845 18.7576 12.0974 18.7063C12.5443 18.6803 12.9894 18.6287 13.4305 18.5519C13.8919 18.4749 14.3278 18.3974 14.7636 18.2943C16.1069 17.9664 17.4129 17.5001 18.6609 16.9027C19.0967 16.6965 19.5072 16.4645 19.9175 16.2326ZM15.8988 15.2027C16.2046 15.0887 16.5165 14.9724 16.8149 14.8411C15.594 10.7018 13.008 7.10359 9.48219 4.63847C9.36644 4.56581 9.25276 4.49315 9.13998 4.42107C8.85298 4.23763 8.57173 4.05786 8.27717 3.89138C7.91789 4.20029 7.55908 4.51206 7.2258 4.84473C4.76768 7.27151 2.9292 10.2594 1.86681 13.5541C1.18389 15.6945 0.837767 17.929 0.840964 20.1767C0.840964 20.6868 0.86645 21.1992 0.891731 21.7074L0.892493 21.7227C1.13331 21.6086 1.39545 21.547 1.66164 21.5421C1.85338 21.5509 2.04308 21.5856 2.22562 21.6453C2.20009 21.1814 2.17457 20.6919 2.17457 20.2024C2.17426 18.1947 2.46766 16.1979 3.04535 14.276C4.06534 10.9678 5.91033 7.97697 8.40481 5.58802C11.8665 7.87635 14.403 11.3308 15.5583 15.3306C15.6701 15.2879 15.7843 15.2453 15.8988 15.2027ZM14.8662 21.075C17.592 20.5201 20.1806 19.4252 22.4811 17.8542C22.08 17.6359 21.7974 17.2484 21.711 16.7982C19.6422 18.201 17.3281 19.1977 14.8908 19.7357C13.4586 20.0468 11.9974 20.2023 10.5321 20.1995C8.62412 20.1979 6.72562 19.929 4.89141 19.4007C5.09436 15.2434 6.7675 11.2958 9.60936 8.2689C9.28493 7.95699 8.94255 7.66453 8.58398 7.39301C5.64652 10.5485 3.88078 14.6254 3.58428 18.9368C3.55875 19.3493 3.53322 19.787 3.53322 20.2252V20.354C3.96909 20.5085 4.43096 20.6391 4.89235 20.766C6.73148 21.2646 8.62826 21.5159 10.5331 21.5131C11.9884 21.5129 13.44 21.3661 14.8662 21.075ZM24.0227 16.4289C24.024 16.607 23.9542 16.7782 23.8289 16.9042C23.7036 17.0301 23.5333 17.1003 23.3562 17.099C22.9908 17.0924 22.6962 16.7962 22.6896 16.4289C22.6962 16.0616 22.9908 15.7654 23.3562 15.7588C23.7216 15.7654 24.0162 16.0616 24.0227 16.4289ZM1.72168 23.9659C2.08706 23.9593 2.38169 23.6631 2.38824 23.2958C2.38169 22.9285 2.08706 22.6323 1.72168 22.6257C1.54451 22.6244 1.37423 22.6946 1.24895 22.8205C1.12366 22.9465 1.05385 23.1177 1.05512 23.2958C1.05385 23.4739 1.12366 23.6451 1.24895 23.771C1.37423 23.897 1.54451 23.9672 1.72168 23.9659Z"
      fill="white"
    />
  </svg>