<svg xmlns="http://www.w3.org/2000/svg" width="120" height="120" viewBox="0 0 120 120">
    <path fill="#FFF" d="M89.813 74.836c-5.954 4.067-12.654 6.9-19.71 8.336-3.69.754-7.448 1.134-11.215 1.135-4.93.007-9.84-.644-14.6-1.934-1.193-.329-2.389-.667-3.517-1.067v-.333c0-1.134.066-2.267.132-3.335.768-11.159 5.338-21.71 12.94-29.878.929.703 1.815 1.46 2.655 2.267-7.356 7.835-11.686 18.052-12.212 28.812 4.748 1.368 9.662 2.063 14.6 2.068 3.792.007 7.574-.396 11.281-1.2 6.309-1.393 12.298-3.973 17.653-7.604.223 1.165.955 2.168 1.993 2.733zm-14.666-7.798c-1.062.467-2.19.86-3.252 1.267-2.99-10.353-9.555-19.294-18.515-25.216-6.456 6.183-11.232 13.924-13.872 22.486-1.495 4.974-2.254 10.143-2.253 15.34 0 1.266.066 2.533.132 3.734-.473-.155-.964-.245-1.46-.267-.689.012-1.367.172-1.99.467-.067-1.328-.134-2.668-.134-4.001-.008-5.818.887-11.601 2.655-17.141 2.75-8.528 7.508-16.261 13.87-22.542.863-.861 1.792-1.668 2.722-2.468 1.062.6 2.056 1.267 3.118 1.934 9.126 6.38 15.82 15.693 18.98 26.407zm8.03 3.601c-1.062.6-2.124 1.201-3.252 1.735-3.23 1.546-6.61 2.753-10.087 3.601-1.128.267-2.256.468-3.45.667-1.142.199-2.294.333-3.45.4-1.328.133-2.722.2-4.116.2-1.327 0-2.654-.066-3.981-.132-1.157-.064-2.31-.198-3.45-.4-1.129-.2-2.325-.4-3.451-.667.132-1.2.332-2.337.531-3.467 1.128.266 2.256.467 3.45.666 1.142.2 2.294.333 3.45.4 1.129.066 2.257.133 3.451.133 1.195 0 2.39-.067 3.584-.133 1.157-.064 2.31-.197 3.45-.4 1.195-.2 2.325-.4 3.451-.666 3.433-.812 6.753-2.044 9.888-3.668-.545-2.308-1.232-4.58-2.057-6.803-1.475-3.834-3.39-7.483-5.707-10.87-.663-1.001-1.394-1.935-2.057-2.802-.734-.933-1.46-1.8-2.256-2.668-4.378-4.805-9.596-8.761-15.396-11.67.834-.83 1.311-1.955 1.328-3.135v-.133c6.543 3.184 12.387 7.65 17.187 13.139.796.933 1.526 1.8 2.256 2.8.734.934 1.394 1.868 2.057 2.868 2.28 3.328 4.173 6.908 5.64 10.67.891 2.242 1.645 4.536 2.257 6.87.2 1.068.465 2.269.73 3.47v-.005zM50.452 30.89c.003.461-.178.904-.502 1.23-.324.326-.765.508-1.223.505-.459.003-.9-.179-1.224-.505-.324-.326-.505-.769-.502-1.23.017-.95.78-1.717 1.726-1.734.462-.015.91.163 1.236.491.327.329.504.779.489 1.243zm43.35 40.257c.004.461-.177.904-.5 1.23-.325.326-.766.508-1.224.505-.946-.017-1.709-.784-1.726-1.735.017-.95.78-1.717 1.726-1.734.945.017 1.708.784 1.725 1.734zM37.809 88.921c-.017.95-.78 1.717-1.726 1.734-.458.003-.899-.178-1.223-.504-.324-.326-.505-.77-.502-1.23-.003-.461.178-.905.502-1.23.324-.327.765-.508 1.223-.505.946.017 1.709.784 1.726 1.735z"/>
</svg>
