<svg width="28" height="20" viewBox="0 0 28 20" fill="none" xmlns="http://www.w3.org/2000/svg">
<rect width="28" height="20" rx="2" fill="white"/>
<mask id="mask0" mask-type="alpha" maskUnits="userSpaceOnUse" x="0" y="0" width="28" height="20">
<rect width="28" height="20" rx="2" fill="white"/>
</mask>
<g mask="url(#mask0)">
<rect x="13.3333" width="14.6667" height="20" fill="#1AB11F"/>
<path fill-rule="evenodd" clip-rule="evenodd" d="M0 20H9.33333V0H0V20Z" fill="#262626"/>
<path fill-rule="evenodd" clip-rule="evenodd" d="M9.33331 20H18.6666V0H9.33331V20Z" fill="#DC0D18"/>
<path opacity="0.75" d="M12.9982 11.0648L13.3328 10.4882L12.9982 11.0648ZM13.2402 11.976L13.8168 12.3106L13.8168 12.3106L13.2402 11.976ZM12.329 12.2181L12.6636 11.6415L12.329 12.2181ZM15.794 12.1431L16.1532 12.7047L15.794 12.1431ZM14.8732 11.9406L14.3116 12.2998H14.3116L14.8732 11.9406ZM15.0756 11.0198L15.4348 11.5814L15.0756 11.0198ZM12.6666 9.33331C12.6666 8.59693 12.0697 7.99998 11.3333 7.99998V9.33331H12.6666ZM13.3328 10.4882C12.9319 10.2556 12.6666 9.82489 12.6666 9.33331H11.3333C11.3333 10.3187 11.8679 11.1798 12.6636 11.6415L13.3328 10.4882ZM13.8168 12.3106C14.1864 11.6737 13.9697 10.8578 13.3328 10.4882L12.6636 11.6415L12.6636 11.6415L13.8168 12.3106ZM11.9944 12.7947C12.6314 13.1643 13.4473 12.9475 13.8168 12.3106L12.6636 11.6415H12.6636L11.9944 12.7947ZM9.99998 9.33331C9.99998 10.8139 10.805 12.1046 11.9944 12.7947L12.6636 11.6415C11.868 11.1798 11.3333 10.3189 11.3333 9.33331H9.99998ZM11.3333 7.99998C10.5969 7.99998 9.99998 8.59693 9.99998 9.33331H11.3333V7.99998ZM18 9.33331C18 8.59693 17.403 7.99998 16.6666 7.99998V9.33331H18ZM16.1532 12.7047C17.2607 11.9964 18 10.7517 18 9.33331H16.6666C16.6666 10.2776 16.1758 11.1076 15.4348 11.5814L16.1532 12.7047ZM14.3116 12.2998C14.7083 12.9202 15.5329 13.1014 16.1532 12.7047L15.4348 11.5814L14.3116 12.2998ZM14.7164 10.4582C14.0961 10.855 13.9148 11.6795 14.3116 12.2998L15.4348 11.5814L14.7164 10.4582ZM15.3333 9.33331C15.3333 9.80449 15.09 10.2193 14.7164 10.4582L15.4348 11.5814C16.1759 11.1075 16.6666 10.2775 16.6666 9.33331H15.3333ZM16.6666 7.99998C15.9303 7.99998 15.3333 8.59693 15.3333 9.33331H16.6666V7.99998Z" fill="white"/>
<path fill-rule="evenodd" clip-rule="evenodd" d="M14 10.6667C14.7364 10.6667 15.3334 9.77126 15.3334 8.66669C15.3334 7.56212 14.7364 6.66669 14 6.66669C13.2636 6.66669 12.6667 7.56212 12.6667 8.66669C12.6667 9.77126 13.2636 10.6667 14 10.6667Z" fill="white" fill-opacity="0.5"/>
</g>
</svg>
