<svg width="28" height="20" viewBox="0 0 28 20" fill="none" xmlns="http://www.w3.org/2000/svg">
<rect width="28" height="20" rx="2" fill="white"/>
<mask id="mask0" mask-type="alpha" maskUnits="userSpaceOnUse" x="0" y="0" width="28" height="20">
<rect width="28" height="20" rx="2" fill="white"/>
</mask>
<g mask="url(#mask0)">
<rect width="28" height="20" fill="url(#paint0_linear)"/>
<path fill-rule="evenodd" clip-rule="evenodd" d="M13.4444 3.33332C13.3723 3.33332 13.3021 3.35672 13.2444 3.39999L10.7205 5.29294C10.685 5.31959 10.6444 5.33887 10.6013 5.34965L8.03548 5.99112C8.01188 5.99701 7.98901 6.00548 7.96725 6.01635L5.43269 7.28363C5.36818 7.31589 5.31588 7.3682 5.28362 7.4327L4.08649 9.82697C4.03299 9.93396 4.04093 10.0614 4.10728 10.1609L5.27733 11.916C5.31383 11.9708 5.33331 12.0351 5.33331 12.1009V13.8619C5.33331 13.9503 5.36843 14.0351 5.43094 14.0976L6.49676 15.1634C6.59822 15.2649 6.75321 15.29 6.88154 15.2259L10.5963 13.3685C10.6425 13.3454 10.6936 13.3333 10.7453 13.3333H13.2126C13.2906 13.3333 13.3661 13.3607 13.426 13.4106L17.2406 16.5894C17.3005 16.6393 17.376 16.6667 17.454 16.6667H19.8216C19.933 16.6667 20.0371 16.611 20.0989 16.5182L22.6107 12.7506C22.6472 12.6959 22.6666 12.6315 22.6666 12.5657V10.1009C22.6666 10.0351 22.6472 9.97077 22.6107 9.91601L20 5.99999L18.0971 2.82849C18.0368 2.72809 17.9283 2.66666 17.8112 2.66666H17.3927C17.1248 2.66666 16.9906 2.9906 17.18 3.18005C17.2716 3.27158 17.2943 3.41142 17.2364 3.5272L16.7588 4.48239C16.7023 4.59532 16.5869 4.66666 16.4606 4.66666H14.8727C14.7464 4.66666 14.631 4.59532 14.5745 4.48239L14.0921 3.51759C14.0356 3.40466 13.9202 3.33332 13.794 3.33332H13.4444ZM19.3333 17.3333H18L18.4309 17.7643C18.5611 17.8945 18.7722 17.8945 18.9023 17.7643L19.3333 17.3333Z" fill="white"/>
</g>
<defs>
<linearGradient id="paint0_linear" x1="0" y1="0" x2="0" y2="20" gradientUnits="userSpaceOnUse">
<stop stop-color="#19BFBF"/>
<stop offset="1" stop-color="#10ACAC"/>
</linearGradient>
</defs>
</svg>
