<svg width="28" height="20" viewBox="0 0 28 20" fill="none" xmlns="http://www.w3.org/2000/svg">
<rect x="0.25" y="0.25" width="27.5" height="19.5" rx="1.75" fill="white" stroke="#F5F5F5" stroke-width="0.5"/>
<mask id="mask0" mask-type="alpha" maskUnits="userSpaceOnUse" x="0" y="0" width="28" height="20">
<rect x="0.25" y="0.25" width="27.5" height="19.5" rx="1.75" fill="white" stroke="white" stroke-width="0.5"/>
</mask>
<g mask="url(#mask0)">
<path fill-rule="evenodd" clip-rule="evenodd" d="M20 3.33336C20.3631 3.15181 20.7316 3.56926 20.5064 3.90704L20.0672 4.56583C20.0228 4.63241 19.9657 4.68955 19.8991 4.73394L18.0549 5.96341C18.0184 5.98776 17.9843 6.01567 17.9533 6.04671L17.8047 6.19529C17.5444 6.45564 17.5444 6.87775 17.8047 7.1381L18.1952 7.52863C18.4556 7.78897 18.4556 8.21108 18.1952 8.47143L17.6731 8.99359C17.4702 9.1965 17.1602 9.2468 16.9035 9.11847L16.5963 8.96484C16.2669 8.80018 15.8665 8.93366 15.7018 9.26298L15.4568 9.75304C15.3777 9.91119 15.2391 10.0314 15.0713 10.0874L13.4359 10.6325C13.368 10.6551 13.2968 10.6667 13.2251 10.6667H12.412C12.1595 10.6667 11.9286 10.8094 11.8157 11.0352L11.6315 11.4037C11.4668 11.7331 11.0663 11.8665 10.737 11.7019L8.76341 10.7151C8.69932 10.683 8.64082 10.6409 8.59015 10.5902L7.52857 9.52863C7.40355 9.4036 7.33331 9.23403 7.33331 9.05722V8.47143C7.33331 8.21109 7.54437 8.00003 7.80472 8.00003C7.92974 8.00003 8.04965 7.95036 8.13805 7.86196L9.13805 6.86196C9.26307 6.73693 9.43264 6.6667 9.60946 6.6667H10.1861C10.4731 6.6667 10.7279 6.48308 10.8186 6.21085L11.1472 5.22502C11.2535 4.90605 11.5807 4.71618 11.9104 4.78212L14.5196 5.30396C14.6164 5.32332 14.7163 5.32094 14.8121 5.297L17.2623 4.68445C17.3095 4.67265 17.3553 4.65572 17.3988 4.63397L18.6666 4.00003L20 3.33336Z" fill="#E7832C"/>
<path fill-rule="evenodd" clip-rule="evenodd" d="M14 16C14.3682 16 14.6666 15.7015 14.6666 15.3334C14.6666 14.9652 14.3682 14.6667 14 14.6667C13.6318 14.6667 13.3333 14.9652 13.3333 15.3334C13.3333 15.7015 13.6318 16 14 16Z" fill="#445128"/>
<path opacity="0.75" d="M16 14.6667C16 14.6667 18 14 18.6667 12.6667" stroke="#445128" stroke-width="1.33333" stroke-linecap="round"/>
<path opacity="0.75" d="M12 14.6667C12 14.6667 10 14 9.33333 12.6667" stroke="#445128" stroke-width="1.33333" stroke-linecap="round"/>
</g>
</svg>
