<svg width="28" height="20" viewBox="0 0 28 20" fill="none" xmlns="http://www.w3.org/2000/svg">
<rect width="28" height="20" rx="2" fill="#D01129"/>
<mask id="mask0" mask-type="alpha" maskUnits="userSpaceOnUse" x="0" y="0" width="28" height="20">
<rect width="28" height="20" rx="2" fill="white"/>
</mask>
<g mask="url(#mask0)">
<path fill-rule="evenodd" clip-rule="evenodd" d="M13.8881 10.0409C14.5491 10.0409 15.0849 9.47829 15.0849 8.78447C15.0849 8.09052 14.5491 7.52795 13.8881 7.52795C13.2272 7.52795 12.6915 8.09052 12.6915 8.78447C12.6915 9.47829 13.2272 10.0409 13.8881 10.0409Z" fill="#FFF101"/>
<path fill-rule="evenodd" clip-rule="evenodd" d="M12.7974 8.27925C13.1363 8.16573 13.576 8.29784 13.8652 8.58934C14.1723 8.53063 14.4803 8.12573 14.5757 7.76524C14.4708 6.56732 13.7245 5.6598 13.4975 5.03705C13.4258 4.84023 13.093 4.53075 12.747 4.67485C12.4625 4.79338 12.3186 4.70115 11.3631 5.20157C10.8464 5.47216 10.4114 5.75008 10.1823 5.79852C9.953 5.84696 9.71114 5.89014 9.52776 5.73931C9.27553 5.53185 8.99265 5.47448 8.82605 5.31815C8.62193 5.12659 8.49098 4.982 8.35292 4.92341C8.21487 4.86469 7.98116 4.99509 8.07984 5.30543C8.30248 6.00634 8.82733 6.11986 9.05265 6.77503C9.15902 7.08475 9.31024 7.31754 9.64822 7.0828C9.9862 6.84806 10.4639 6.53625 11.2782 6.50347C11.8251 6.48133 12.3903 6.2702 12.65 5.92378C12.6474 6.22347 12.7481 6.4691 12.7215 6.85894C12.6951 7.24891 12.6993 7.73393 12.7974 8.27925Z" fill="white"/>
<path fill-rule="evenodd" clip-rule="evenodd" d="M13.438 8.31217C13.3376 7.72244 13.5197 7.63743 13.3023 6.94617C13.1715 6.53051 13.088 6.00954 13.0859 5.76709L12.9985 5.79376C13.0006 6.0362 13.0843 6.5573 13.2149 6.97296C13.4252 7.64134 13.2617 7.74287 13.3416 8.2822C13.3663 8.28746 13.4182 8.30483 13.438 8.31217Z" fill="#FFF101"/>
<path fill-rule="evenodd" clip-rule="evenodd" d="M12.9235 8.24744C12.9242 8.17245 12.9197 8.09416 12.9086 8.02689C13.0623 7.98811 13.3254 8.13722 13.3181 8.0264C13.3159 7.99129 13.3193 7.87777 13.3214 7.81759C13.318 7.91166 12.952 7.75288 12.889 7.79386C12.8213 7.45074 12.9052 7.09771 12.8515 6.8823C12.9737 6.84719 13.1983 6.92377 13.1708 6.82322C13.1552 6.77172 13.1254 6.64364 13.1057 6.56352C13.1249 6.64744 12.9466 6.57796 12.8862 6.62591C12.8549 6.43985 12.8091 6.08683 12.81 5.92548L12.65 5.92377C12.6474 6.22346 12.748 6.46909 12.7215 6.85894C12.695 7.2489 12.6992 7.73392 12.7973 8.27924C12.8324 8.26848 12.8902 8.25465 12.9235 8.24744Z" fill="#FFF101"/>
<path fill-rule="evenodd" clip-rule="evenodd" d="M12.5193 5.50799C12.2807 5.86971 11.7107 6.11937 11.1838 6.17454C10.567 6.23912 10.1529 6.45466 9.84803 6.66567C9.82182 6.61613 9.77452 6.58946 9.73269 6.5568C9.28659 6.20989 9.46997 5.7398 9.6389 5.80695C9.57518 5.78102 9.53813 5.74604 9.50329 5.71974C9.44434 5.67386 9.27424 5.84964 9.29556 6.12879C9.30465 6.24769 9.40158 6.4231 9.48046 6.51607C9.33646 6.48854 9.26749 6.44989 9.1829 6.34261C9.23044 6.31154 9.29195 6.29393 9.34158 6.28989C9.32469 6.24732 9.30116 6.2001 9.29556 6.12879C9.22508 6.12818 9.1391 6.15399 9.06535 6.20659C8.88838 6.02151 8.70617 5.87386 8.6005 5.65539C8.43145 5.30542 8.60341 5.08451 8.82605 5.31815C8.62193 5.12659 8.49098 4.982 8.35292 4.92341C8.21487 4.86469 7.98116 4.99509 8.07984 5.30542C8.30248 6.00634 8.82733 6.11986 9.05265 6.77503C9.15902 7.08475 9.31584 7.3261 9.64822 7.08279C9.69203 7.05075 9.70368 7.04316 9.74178 7.01478C9.84721 6.95081 10.0143 7.05821 9.99646 7.29172C10.0819 7.07729 10.0273 7.0116 9.95487 6.88304C9.90127 6.91301 9.90558 6.73747 9.8725 6.71435C10.0622 6.59056 10.2928 6.4664 10.5839 6.37796C10.5946 6.48279 10.6221 6.59411 10.714 6.57796C10.7633 6.56646 10.8133 6.55607 10.8658 6.54689C10.7739 6.56304 10.748 6.4412 10.7374 6.33649C10.8754 6.30322 11.0261 6.27802 11.1913 6.26383C11.3817 6.24744 11.5785 6.20683 11.7633 6.14383C11.7907 6.24438 11.8476 6.4138 11.9423 6.38053C12.0263 6.35227 12.108 6.32035 12.1847 6.28328C12.0529 6.34922 12.001 6.16096 11.9694 6.06139C12.2102 5.95142 12.4153 5.80145 12.538 5.62249L12.5193 5.50799Z" fill="#FFF101"/>
<path fill-rule="evenodd" clip-rule="evenodd" d="M13.5732 5.68759C13.6894 5.59291 13.7893 5.54814 13.689 5.34765C13.5249 5.01982 13.6269 5.0187 13.2677 4.81014C12.9018 4.59803 12.9481 4.58139 12.464 4.76059C12.3449 4.80463 12.3715 4.84965 12.3924 5.03093C12.4372 5.42163 12.5225 5.73627 12.6004 6.05773C12.9047 6.01602 13.3729 5.85089 13.5732 5.68759Z" fill="#FFF101"/>
<path fill-rule="evenodd" clip-rule="evenodd" d="M12.4376 5.59878C12.3737 5.40697 12.3909 5.43303 12.6222 5.4915C12.698 5.23866 12.8026 5.02525 12.8612 4.8206C12.9266 4.59149 12.9471 4.55027 13.0435 4.60641C13.1668 4.67809 13.3021 4.75381 13.3903 4.79932C13.5443 4.87858 13.5216 4.90635 13.4481 5.03235C13.3746 5.15834 13.1342 5.4137 12.9859 5.68012C13.1815 5.82471 13.2443 5.8378 13.1053 5.90006C12.9497 5.96967 12.6913 6.0559 12.5825 6.07633C12.5626 5.95046 12.4983 5.78067 12.4376 5.59878Z" fill="#FFF101"/>
<path fill-rule="evenodd" clip-rule="evenodd" d="M10.1409 7.40245L10.1255 7.59975L9.98701 7.46764L9.83206 7.5781L9.84231 7.38116L9.66394 7.32453L9.81633 7.20979L9.74911 7.02679L9.92794 7.08159L10.0224 6.91217L10.0942 7.09309L10.2787 7.06385L10.1883 7.23645L10.3244 7.36979L10.1409 7.40245Z" fill="#FFF101"/>
<path fill-rule="evenodd" clip-rule="evenodd" d="M14.017 10.029C13.7538 9.7775 13.6429 9.31169 13.7388 8.90288C13.5368 8.65309 13.0488 8.57542 12.7038 8.66887C11.7681 9.36331 11.3927 10.4957 10.9925 11.0135C10.866 11.1771 10.7771 11.6343 11.0691 11.8769C11.3091 12.0763 11.305 12.2532 12.1954 12.8719C12.677 13.2065 13.1236 13.463 13.2782 13.6472C13.433 13.8314 13.5894 14.0299 13.5567 14.2719C13.5117 14.605 13.6057 14.891 13.5602 15.1205C13.5041 15.4018 13.4504 15.5933 13.4711 15.7481C13.4918 15.903 13.7161 16.0503 13.9227 15.8054C14.3895 15.2525 14.2208 14.7185 14.6486 14.1861C14.8507 13.9344 14.9672 13.6805 14.6047 13.4905C14.242 13.3007 13.746 13.0221 13.3117 12.2982C13.0201 11.812 12.5634 11.4036 12.1477 11.3407C12.3962 11.1933 12.5486 10.9788 12.8834 10.808C13.2182 10.6371 13.6162 10.391 14.017 10.029Z" fill="white"/>
<path fill-rule="evenodd" clip-rule="evenodd" d="M13.7236 9.42996C13.2875 9.81614 13.1263 9.69296 12.6648 10.2363C12.3874 10.5631 11.9995 10.8996 11.8005 11.0226L11.8662 11.0887C12.0652 10.9656 12.4531 10.6291 12.7307 10.3024C13.1769 9.777 13.3423 9.87486 13.7473 9.53247C13.7392 9.50752 13.7275 9.45161 13.7236 9.42996Z" fill="#FFF101"/>
<path fill-rule="evenodd" clip-rule="evenodd" d="M13.9275 9.93014C13.8654 9.96696 13.8031 10.0103 13.7531 10.0539C13.6443 9.93357 13.6357 9.61968 13.5481 9.68195C13.5201 9.70127 13.4248 9.7551 13.374 9.78323C13.4535 9.73932 13.5053 10.1514 13.5707 10.1882C13.3215 10.4214 12.9884 10.5216 12.8376 10.6782C12.7476 10.5845 12.6984 10.3421 12.6292 10.4174C12.5946 10.4572 12.5038 10.5484 12.4476 10.6063C12.5072 10.5469 12.539 10.7438 12.6087 10.7747C12.471 10.8963 12.2027 11.1144 12.069 11.1942L12.1477 11.3407C12.3962 11.1933 12.5486 10.9788 12.8834 10.8079C13.2182 10.6371 13.6162 10.3909 14.017 10.029C13.9905 10.0024 13.9501 9.95681 13.9275 9.93014Z" fill="#FFF101"/>
<path fill-rule="evenodd" clip-rule="evenodd" d="M11.8702 11.6674C12.2878 11.7035 12.7787 12.0969 13.0877 12.5485C13.4493 13.077 13.8342 13.3457 14.1607 13.5174C14.1329 13.5661 14.1346 13.6224 14.1286 13.6768C14.0655 14.2559 13.5861 14.3241 13.5569 14.137C13.5674 14.2079 13.5571 14.2591 13.5529 14.304C13.5445 14.3805 13.7746 14.4472 13.9941 14.2883C14.0876 14.2205 14.1837 14.0447 14.2211 13.9266C14.2703 14.0712 14.2729 14.1533 14.2268 14.2838C14.1773 14.2561 14.1321 14.2089 14.1039 14.166C14.0772 14.2025 14.0501 14.2476 13.9941 14.2883C14.0288 14.3528 14.0931 14.418 14.1734 14.4587C14.1092 14.7121 14.0785 14.9517 13.9511 15.1569C13.7471 15.4856 13.4788 15.4397 13.5602 15.1205C13.5042 15.4018 13.4505 15.5933 13.4711 15.7481C13.4918 15.903 13.7161 16.0503 13.9228 15.8054C14.3895 15.2525 14.2208 14.7185 14.6486 14.186C14.8507 13.9344 14.9715 13.6712 14.6047 13.4905C14.5562 13.4668 14.5442 13.46 14.5018 13.4395C14.3962 13.3756 14.4014 13.17 14.6028 13.0695C14.3833 13.0991 14.3564 13.1815 14.2866 13.3117C14.338 13.3453 14.1911 13.4292 14.1885 13.4709C13.9916 13.3603 13.774 13.2127 13.5554 12.9921C13.6366 12.9301 13.7147 12.8494 13.6553 12.7739C13.6211 12.7349 13.5876 12.6945 13.5537 12.6514C13.6131 12.727 13.5256 12.8112 13.4444 12.8734C13.348 12.7646 13.2519 12.6401 13.1576 12.497C13.0489 12.332 12.917 12.1734 12.7726 12.0369C12.8418 11.9616 12.9531 11.8253 12.8783 11.7557C12.8131 11.6934 12.7458 11.6351 12.677 11.5841C12.7972 11.6709 12.6678 11.8122 12.6016 11.8907C12.3904 11.7268 12.1641 11.6151 11.9552 11.5933L11.8702 11.6674Z" fill="#FFF101"/>
<path fill-rule="evenodd" clip-rule="evenodd" d="M11.3218 10.6977C11.1855 10.6394 11.2528 10.5605 11.1375 10.752C10.9492 11.065 10.9127 10.9929 10.9204 11.4238C10.9282 11.8624 11.0093 11.7924 11.3993 12.143C11.6991 11.907 12.0568 11.5503 12.283 11.3187C12.0965 11.0629 11.5566 10.7984 11.3218 10.6977Z" fill="#FFF101"/>
<path fill-rule="evenodd" clip-rule="evenodd" d="M11.9858 11.6963C11.8595 11.8503 11.8725 11.8218 11.805 11.582C11.5586 11.6395 11.3685 11.7059 11.1706 11.755C10.9488 11.8099 10.9046 11.8119 10.9026 11.6963C10.9002 11.5483 10.8951 11.3874 10.8884 11.2844C10.8769 11.1048 10.911 11.1114 11.0518 11.1154C11.1925 11.1191 11.4849 11.1555 11.7788 11.1571C11.8002 10.9069 11.7796 10.8433 11.9006 10.9386C12.0356 11.0451 12.236 11.2371 12.3073 11.3258C12.2134 11.4067 12.1056 11.5502 11.9858 11.6963Z" fill="#FFF101"/>
<path fill-rule="evenodd" clip-rule="evenodd" d="M14.6219 12.8829L14.7924 12.7981L14.7526 12.9901L14.9213 13.0758L14.7537 13.1649L14.7961 13.3554L14.6252 13.2742L14.5079 13.4269L14.4637 13.2368L14.2767 13.2356L14.3902 13.08L14.2737 12.9268L14.4614 12.9227L14.5033 12.7323L14.6219 12.8829Z" fill="#FFF101"/>
<path fill-rule="evenodd" clip-rule="evenodd" d="M14.8503 8.04514C14.7745 8.41003 14.4457 8.74385 14.0606 8.86116C13.9555 9.16967 14.1354 9.65199 14.3851 9.91927C15.4256 10.4228 16.5474 10.1979 17.1745 10.3029C17.3728 10.336 17.7944 10.1883 17.8485 9.80159C17.893 9.48367 18.0409 9.39902 18.106 8.27988C18.1412 7.67474 18.1294 7.14031 18.2041 6.90765C18.2788 6.67499 18.3642 6.4334 18.5802 6.34214C18.8774 6.21652 19.0662 5.98789 19.2785 5.91462C19.5384 5.82483 19.7232 5.77798 19.8405 5.68184C19.958 5.58569 19.9673 5.30801 19.662 5.24257C18.9726 5.09456 18.6165 5.51499 17.9634 5.39217C17.6548 5.33419 17.3871 5.35511 17.4118 5.77994C17.4365 6.20465 17.4547 6.79486 17.0747 7.55168C16.8194 8.06006 16.711 8.67951 16.8669 9.08893C16.621 8.93664 16.368 8.90532 16.0597 8.68636C15.7513 8.46728 15.3493 8.22863 14.8503 8.04514Z" fill="white"/>
<path fill-rule="evenodd" clip-rule="evenodd" d="M14.5028 8.61124C15.0394 8.81466 15.0185 9.02286 15.6973 9.17087C16.1056 9.2598 16.5771 9.44426 16.7781 9.56365L16.7997 9.47081C16.5987 9.35142 16.1271 9.16708 15.719 9.07802C15.0625 8.9349 15.0605 8.73552 14.5756 8.53845C14.5591 8.55839 14.5188 8.59692 14.5028 8.61124Z" fill="#FFF101"/>
<path fill-rule="evenodd" clip-rule="evenodd" d="M14.8134 8.17578C14.875 8.21382 14.9418 8.24881 15.0028 8.27254C14.958 8.43156 14.7033 8.59645 14.7985 8.64501C14.8285 8.66079 14.9204 8.72049 14.969 8.75254C14.8931 8.70226 15.207 8.44905 15.2048 8.37113C15.5218 8.48122 15.7709 8.73407 15.9755 8.7929C15.9433 8.92159 15.7679 9.08746 15.8646 9.11278C15.9148 9.12428 16.0353 9.16122 16.1113 9.18336C16.0324 9.1589 16.179 9.03144 16.1696 8.95278C16.3387 9.01712 16.6527 9.15205 16.7854 9.23364L16.8668 9.08893C16.621 8.93663 16.368 8.90532 16.0597 8.68636C15.7513 8.46728 15.3493 8.22862 14.8503 8.04514C14.8416 8.08232 14.8242 8.14189 14.8134 8.17578Z" fill="#FFF101"/>
<path fill-rule="evenodd" clip-rule="evenodd" d="M17.2751 9.17786C17.096 8.78006 17.1751 8.137 17.3932 7.63022C17.6483 7.03707 17.6775 6.55278 17.6558 6.17015C17.7099 6.17113 17.7554 6.14141 17.8034 6.11963C18.3125 5.88759 18.6086 6.2893 18.4686 6.4093C18.522 6.36428 18.5694 6.34826 18.6085 6.32967C18.6758 6.29884 18.6158 6.05639 18.375 5.93627C18.2723 5.88502 18.0793 5.88551 17.963 5.91058C18.0579 5.79352 18.1241 5.75022 18.2549 5.72685C18.2568 5.78569 18.2405 5.8504 18.2191 5.89749C18.2627 5.90337 18.3133 5.90557 18.375 5.93627C18.4107 5.87242 18.4324 5.78141 18.4259 5.68795C18.6671 5.6197 18.8799 5.52783 19.1129 5.54104C19.4861 5.5622 19.5824 5.82911 19.2785 5.91462C19.5384 5.82483 19.7232 5.77798 19.8405 5.68184C19.9579 5.58569 19.9673 5.30801 19.662 5.24257C18.9725 5.09456 18.6165 5.51499 17.9634 5.39217C17.6547 5.33419 17.3772 5.35597 17.4117 5.77994C17.4163 5.83584 17.4167 5.85015 17.421 5.89896C17.421 6.02691 17.249 6.12502 17.0653 5.99205C17.1994 6.177 17.2809 6.16025 17.4231 6.15866C17.4252 6.09493 17.5678 6.18655 17.6035 6.16808C17.6108 6.40245 17.5978 6.67425 17.5252 6.98312C17.4334 6.94043 17.3279 6.90973 17.2952 7.00147C17.2801 7.05199 17.2636 7.10263 17.245 7.15499C17.2776 7.06324 17.391 7.1008 17.4827 7.14349C17.4412 7.28551 17.3866 7.43523 17.3157 7.59254C17.2339 7.77382 17.1692 7.97297 17.1287 8.1726C17.032 8.14728 16.8639 8.11425 16.8439 8.21713C16.8252 8.30752 16.8107 8.3978 16.803 8.486C16.8145 8.33321 16.9957 8.38019 17.0937 8.4011C17.0641 8.67511 17.085 8.93664 17.1714 9.13774L17.2751 9.17786Z" fill="#FFF101"/>
<path fill-rule="evenodd" clip-rule="evenodd" d="M16.5586 10.0094C16.5786 10.1626 16.5656 10.2757 16.7811 10.2847C17.1335 10.2995 17.1049 10.3451 17.4565 10.1227C17.8143 9.89628 17.8238 9.94099 17.9181 9.4112C17.9412 9.28093 17.8908 9.28252 17.7308 9.21083C17.3863 9.05622 17.0852 9.06678 16.7811 8.97687C16.6633 9.27448 16.5241 9.74569 16.5586 10.0094Z" fill="#FFF101"/>
<path fill-rule="evenodd" clip-rule="evenodd" d="M17.241 9.05833C17.4313 9.096 17.4012 9.09857 17.2373 9.27986C17.408 9.47509 17.5386 9.61245 17.6782 9.76804C17.8344 9.94223 17.8581 9.98138 17.7637 10.0409C17.6429 10.1172 17.5129 10.2023 17.4312 10.2599C17.2887 10.3602 17.2772 10.3257 17.21 10.1958C17.1428 10.066 17.0454 9.78408 16.8999 9.51619C16.6827 9.62163 16.6406 9.67227 16.6587 9.51472C16.6791 9.33857 16.7373 9.06041 16.7748 8.95129C16.8885 8.99606 17.0607 9.02236 17.241 9.05833Z" fill="#FFF101"/>
<path fill-rule="evenodd" clip-rule="evenodd" d="M16.9018 6.06811L16.7467 5.95545L16.925 5.89551L16.9112 5.6993L17.0685 5.80719L17.2046 5.67337L17.223 5.86933L17.4075 5.89967L17.2728 6.03496L17.3653 6.20548L17.1802 6.18016L17.1121 6.36267L17.0149 6.1941L16.8369 6.25123L16.9018 6.06811Z" fill="#FFF101"/>
<path fill-rule="evenodd" clip-rule="evenodd" d="M13.8601 8.59487C13.5705 8.30301 13.1333 8.17476 12.7995 8.28654L12.7901 8.28068C12.7025 7.79335 12.6827 7.32267 12.7142 6.85841C12.7264 6.67882 12.7159 6.54737 12.6807 6.31298C12.6661 6.21577 12.6641 6.20216 12.659 6.16192C12.6486 6.0812 12.6431 6.01285 12.6426 5.94544C12.3863 6.2704 11.8442 6.48822 11.2785 6.51112C10.6092 6.53806 10.1913 6.71477 9.65219 7.08918C9.3527 7.2972 9.18167 7.1734 9.04575 6.77764C8.95576 6.51595 8.84601 6.36489 8.58278 6.08682L8.56253 6.06543C8.28684 5.77409 8.167 5.60415 8.07288 5.30786C7.98499 5.03146 8.17487 4.83947 8.3556 4.91633C8.36791 4.92155 8.38026 4.92749 8.39274 4.93417C8.45094 4.9653 8.51066 5.01132 8.5897 5.08345C8.61677 5.10815 8.69609 5.18392 8.75751 5.24259L8.75753 5.24261L8.75753 5.24261C8.79121 5.27478 8.8195 5.30181 8.83085 5.31246C8.83985 5.32091 8.84915 5.32907 8.85888 5.33706C8.84507 5.32796 8.8307 5.32201 8.81599 5.319L8.74751 5.25372C8.68613 5.19509 8.60707 5.11956 8.58015 5.09499C8.50193 5.02361 8.44305 4.97824 8.38613 4.94779C8.37402 4.94131 8.36205 4.93556 8.35014 4.93051C8.18103 4.85858 8.00271 5.03889 8.0867 5.30302C8.17993 5.59654 8.29863 5.76485 8.57286 6.05465L8.59311 6.07604C8.85773 6.35558 8.96854 6.50811 9.05945 6.77245C9.19264 7.16025 9.35464 7.27751 9.64416 7.07643C10.1853 6.70061 10.6056 6.52291 11.2779 6.49584C11.8495 6.4727 12.3966 6.24932 12.6442 5.91906L12.6572 5.92386C12.6566 5.99762 12.662 6.07115 12.6734 6.15988C12.6785 6.19996 12.6805 6.21353 12.6951 6.3106C12.7304 6.54605 12.7411 6.67848 12.7287 6.8595C12.6975 7.31982 12.7168 7.78644 12.8029 8.2694L12.7951 8.27198L12.8045 8.27784L12.8029 8.2694C13.141 8.16041 13.5791 8.29053 13.8639 8.58183C14.1515 8.52684 14.4674 8.14558 14.5684 7.76595C14.5185 7.1962 14.3345 6.681 14.0037 6.04813C13.9526 5.95048 13.8132 5.69423 13.7456 5.5699L13.7084 5.50156C13.603 5.3043 13.5364 5.16528 13.4907 5.03979C13.396 4.77997 13.0417 4.56033 12.7497 4.68196C12.7099 4.69852 12.6713 4.7117 12.6289 4.72355C12.6018 4.73114 12.5742 4.73796 12.5365 4.7466C12.1476 4.83563 11.9323 4.91199 11.3663 5.20843L11.3185 5.23358C11.2097 5.29119 10.9476 5.43588 10.7844 5.52593L10.7842 5.52603C10.7151 5.56422 10.6637 5.59257 10.6494 5.60025C10.4253 5.721 10.285 5.78461 10.1837 5.80602C9.84871 5.87679 9.67936 5.87376 9.52322 5.74534C9.47405 5.7049 9.42149 5.66832 9.3636 5.63347C9.34866 5.62448 9.3335 5.61567 9.31786 5.60689L9.3225 5.60116L9.32047 5.59102C9.33775 5.60067 9.35442 5.61032 9.37085 5.62021C9.42932 5.65541 9.48245 5.69238 9.5322 5.7333C9.68378 5.85797 9.84989 5.86094 10.1808 5.79103C10.2803 5.76999 10.4199 5.70675 10.6428 5.58664C10.657 5.579 10.7082 5.55072 10.7773 5.5126L10.7774 5.51252L10.7775 5.5125C10.9406 5.42247 11.203 5.27762 11.3119 5.21993L11.3598 5.19474C11.9269 4.89771 12.1433 4.82094 12.5334 4.73166C12.5709 4.72307 12.5983 4.7163 12.6252 4.70878C12.667 4.69708 12.7051 4.68407 12.7443 4.66775C13.0447 4.54264 13.4069 4.76721 13.5043 5.03433C13.5497 5.15896 13.616 5.29742 13.7211 5.49407L13.7581 5.56213C13.8257 5.68635 13.9653 5.94294 14.0164 6.04078C14.3481 6.67532 14.5328 7.19231 14.5826 7.7673C14.4801 8.15481 14.1603 8.5407 13.8601 8.59487ZM9.30487 5.5824L9.32047 5.59102L9.32013 5.58933C9.31505 5.58673 9.30996 5.58443 9.30487 5.5824ZM9.25218 5.57152C9.26966 5.57181 9.28726 5.57541 9.30487 5.5824C9.27818 5.56782 9.24985 5.55309 9.2186 5.53744C9.20343 5.52984 9.16978 5.51338 9.13845 5.49808L9.13809 5.49493C9.1257 5.48904 9.1136 5.48409 9.10174 5.48014L9.07357 5.46635C8.98199 5.42091 8.91944 5.38483 8.86892 5.34513L8.86894 5.34434C8.86562 5.34172 8.86227 5.3393 8.85888 5.33706L8.86892 5.34513L8.8686 5.35682L8.86379 5.36018C8.85961 5.35695 8.85552 5.3537 8.85149 5.35041L8.85159 5.35034C8.85449 5.35226 8.85736 5.35433 8.86019 5.35656L8.86053 5.34409L8.85159 5.35034C8.85127 5.35013 8.85096 5.34992 8.85064 5.34971C8.8404 5.34133 8.83062 5.33275 8.82115 5.32386L8.81599 5.319C8.72243 5.29982 8.61544 5.39938 8.55465 5.55961L8.56545 5.5688L8.86379 5.36018C8.91023 5.39614 8.96648 5.42923 9.04478 5.46887C8.93087 5.46332 8.83518 5.56965 8.71293 5.84175L8.72402 5.85102L9.13381 5.51267C9.16468 5.52775 9.19745 5.54379 9.21233 5.55124C9.22615 5.55816 9.2394 5.5649 9.25218 5.57152ZM9.29911 5.59649C9.28407 5.58826 9.2685 5.57999 9.25218 5.57152C9.12229 5.56937 8.99869 5.74949 8.92459 6.07012L8.93722 6.07687L9.31786 5.60689L9.30468 5.59955L9.30514 5.59899L9.31377 5.60308L9.31141 5.59125L9.30514 5.59899L9.29911 5.59649ZM8.94636 6.04199C9.02941 5.70793 9.16614 5.54476 9.29911 5.59649L9.30468 5.59955L8.94636 6.04199ZM8.94636 6.04199L8.93875 6.07372L8.92612 6.06697L8.94636 6.04199ZM9.119 5.50545L9.13381 5.51267L9.13959 5.5079L9.13845 5.49808L9.11904 5.4886L9.10174 5.48014C9.08215 5.4736 9.06323 5.46977 9.04478 5.46887L9.06734 5.48018L9.09667 5.49452C8.96901 5.45257 8.87155 5.53348 8.73957 5.81873L8.71501 5.839L8.7261 5.84827L8.73957 5.81873L9.119 5.50545ZM9.12098 5.50381C9.11275 5.50025 9.10465 5.49715 9.09667 5.49452L9.11302 5.50253L9.119 5.50545L9.12098 5.50381ZM9.12098 5.50381L9.13209 5.50886L9.13059 5.49588L9.12098 5.50381ZM8.57753 5.54199L8.85149 5.35041C8.85121 5.35018 8.85092 5.34995 8.85064 5.34971C8.763 5.29294 8.64645 5.37944 8.57753 5.54199ZM8.57753 5.54199L8.55738 5.55608L8.56818 5.56527C8.57119 5.55735 8.57431 5.54959 8.57753 5.54199Z" fill="black"/>
<path fill-rule="evenodd" clip-rule="evenodd" d="M13.4174 7.76049C13.407 7.98653 13.4106 8.10816 13.4451 8.3108L13.4355 8.31935C13.4245 8.31528 13.4103 8.3104 13.3955 8.30533C13.3735 8.29775 13.3501 8.28975 13.3344 8.28335C13.3081 8.10565 13.3059 7.99501 13.3155 7.78637L13.3174 7.74303C13.329 7.47495 13.3086 7.2954 13.2079 6.97533C13.0866 6.58906 12.9935 6.06181 12.9965 5.78639L13.0932 5.767C13.0955 6.03353 13.1882 6.55909 13.3091 6.94375C13.4104 7.26577 13.431 7.4472 13.4193 7.71708L13.4174 7.76049ZM13.4404 8.30493L13.4308 8.31349C13.4301 8.30919 13.4293 8.30493 13.4286 8.3007C13.4328 8.30217 13.4368 8.30359 13.4404 8.30493ZM13.3431 8.27468C13.3616 8.27863 13.4004 8.29078 13.4286 8.3007C13.3959 8.1043 13.3926 7.98206 13.4028 7.75976L13.4048 7.71639C13.4163 7.44828 13.396 7.2687 13.2953 6.94855C13.1739 6.56247 13.0809 6.03536 13.0879 5.77441L13.0058 5.79366C13.0081 6.05998 13.1008 6.58569 13.2218 6.97054C13.3231 7.29247 13.3436 7.47386 13.332 7.74372L13.33 7.7871C13.3205 7.9948 13.3226 8.10453 13.3431 8.27468Z" fill="black"/>
<path fill-rule="evenodd" clip-rule="evenodd" d="M11.7187 5.01059C11.6371 5.04733 11.6377 5.17756 11.7037 5.38041C11.7564 5.54263 11.8498 5.74643 11.9622 5.9546L11.9755 5.94878L11.7285 5.01557L11.7187 5.01059ZM12.9158 8.02561C12.9265 8.0906 12.9315 8.1684 12.9308 8.24754L12.925 8.25495L12.9001 8.26047C12.8636 8.26864 12.8223 8.2779 12.7902 8.28069C12.7025 7.79336 12.6827 7.32268 12.7142 6.85842C12.7265 6.67882 12.7159 6.54738 12.6807 6.31298C12.6662 6.21577 12.6642 6.20217 12.659 6.16193C12.6475 6.07253 12.642 5.99831 12.65 5.91615L12.8173 5.92555C12.8165 6.06387 12.8531 6.38195 12.8915 6.61337C12.9122 6.60186 12.9413 6.59872 12.9871 6.5996L13.0058 6.60007C13.0485 6.6013 13.0649 6.60086 13.0798 6.5967C13.097 6.59191 13.1027 6.58324 13.0986 6.56534L13.1128 6.56164C13.1179 6.58237 13.1402 6.67489 13.1388 6.66921L13.1409 6.67766C13.1584 6.74998 13.1699 6.7949 13.1778 6.82113C13.1871 6.85483 13.1717 6.87448 13.1366 6.88161C13.1118 6.88665 13.0877 6.88641 13.0184 6.88263C12.9981 6.88153 12.9868 6.88098 12.9743 6.88054C12.9415 6.87939 12.9146 6.87984 12.8929 6.88021C12.8795 6.88043 12.8681 6.88062 12.8586 6.88039C12.8802 6.96703 12.8815 7.0458 12.8731 7.2677C12.865 7.48326 12.8661 7.5934 12.8845 7.72354C12.8874 7.74362 12.8906 7.76336 12.8943 7.78277C12.9217 7.77241 12.9703 7.78094 13.0939 7.80999L13.1022 7.81194C13.1778 7.82967 13.2173 7.83742 13.2518 7.83972C13.2934 7.84249 13.3134 7.83503 13.3141 7.8174L13.3131 7.84604C13.3 7.85425 13.279 7.85685 13.2509 7.85498C13.2154 7.85261 13.1754 7.84478 13.099 7.82687L13.0907 7.82491C12.9601 7.79422 12.9133 7.78707 12.8929 7.80038L12.8819 7.79544C12.8774 7.77266 12.8735 7.74946 12.8701 7.72578C12.8516 7.59442 12.8505 7.48358 12.8586 7.2671C12.8669 7.04697 12.8655 6.96882 12.8496 6.87495C12.8816 6.86575 12.9205 6.86336 12.9747 6.86526C12.9874 6.8657 12.9988 6.86626 13.0191 6.86736C13.087 6.87106 13.1108 6.8713 13.1339 6.8666C13.1613 6.86102 13.1704 6.84936 13.1639 6.82556C13.1559 6.79914 13.1444 6.75408 13.1268 6.68144L13.1247 6.67298C13.1257 6.67693 13.1149 6.63214 13.1066 6.59812C13.1141 6.58942 13.1164 6.57732 13.1128 6.56176L13.0987 6.56546L13.1066 6.59812C13.1014 6.60423 13.0936 6.60867 13.0835 6.61148C13.0666 6.61618 13.0498 6.61663 13.0054 6.61536L12.9868 6.61489C12.9368 6.61393 12.9082 6.61805 12.8906 6.63203L12.8791 6.62727C12.8398 6.39417 12.8019 6.0672 12.81 5.93315L12.6572 5.92386C12.6566 5.99763 12.662 6.07115 12.6734 6.15989C12.6786 6.19996 12.6806 6.21354 12.6951 6.3106C12.7305 6.54606 12.7411 6.67848 12.7288 6.8595C12.6974 7.32251 12.7171 7.79189 12.7953 8.27193C12.8248 8.26286 12.8755 8.2502 12.9163 8.24123L12.9162 8.24739L12.922 8.23998L12.9163 8.24123C12.9167 8.16509 12.9118 8.09031 12.9069 8.01948C12.9478 8.00916 12.9973 8.01085 13.0608 8.02194C13.0821 8.02566 13.1034 8.03007 13.1333 8.03678C13.225 8.05734 13.2386 8.06 13.2656 8.06054C13.299 8.0612 13.3125 8.05163 13.3108 8.02693C13.3092 8.00058 13.3104 7.93054 13.3131 7.84604C13.3229 7.83992 13.3282 7.8307 13.3286 7.8179L13.3141 7.81734L13.3141 7.81733L13.3286 7.8179C13.3253 7.91419 13.3236 7.99742 13.3254 8.02589C13.3277 8.06136 13.3062 8.07663 13.2653 8.07582C13.2369 8.07526 13.2235 8.07262 13.1303 8.05173C13.1006 8.04507 13.0795 8.0407 13.0584 8.03702C12.9967 8.02624 12.9489 8.02461 12.9158 8.02561ZM11.7169 5.02853L11.7145 5.01966L11.7244 5.02464C11.7218 5.02582 11.7193 5.02711 11.7169 5.02853ZM11.9453 5.89147C11.8466 5.70362 11.7651 5.5222 11.7174 5.37547C11.6562 5.18717 11.6534 5.06581 11.7169 5.02853L11.9453 5.89147ZM11.9453 5.89147C11.955 5.90995 11.9648 5.92848 11.9749 5.94706L11.9615 5.95287L11.9453 5.89147ZM11.7611 6.14841L11.761 6.14846L11.761 6.14846L11.7606 6.14862L11.7655 6.16511C11.8344 6.13816 11.9033 6.10651 11.9722 6.07046L11.9667 6.05426L11.9664 6.05441L11.9664 6.0544L11.9663 6.05447L11.7611 6.14841ZM11.7611 6.14841C11.8294 6.12166 11.8978 6.09025 11.9663 6.05447L11.9664 6.05441L11.9719 6.0706L11.7658 6.16495L11.761 6.14846L11.7611 6.14841ZM10.582 6.37657C10.582 6.37659 10.5819 6.37662 10.5818 6.37664L10.5857 6.39352L10.7392 6.34607L10.7358 6.32906C10.7357 6.32908 10.7357 6.3291 10.7356 6.32911L10.7356 6.32911L10.7355 6.32914C10.6831 6.34355 10.6321 6.35931 10.5821 6.37654L10.582 6.37657L10.582 6.37657ZM10.582 6.37657L10.5859 6.39345C10.6358 6.37624 10.6867 6.3605 10.739 6.34611L10.7356 6.32911C10.7356 6.32912 10.7355 6.32913 10.7355 6.32914L10.5821 6.37654C10.5821 6.37655 10.5821 6.37656 10.582 6.37657Z" fill="black"/>
<path fill-rule="evenodd" clip-rule="evenodd" d="M11.183 6.16694C11.7404 6.10858 12.2878 5.84538 12.5132 5.50365L12.5264 5.5067L12.5439 5.62696C12.4248 5.80073 12.2242 5.95331 11.9762 6.05897C11.9756 6.05714 11.9863 6.09104 11.9896 6.10127C11.9953 6.11863 12.0004 6.13353 12.0057 6.14771C12.0495 6.26395 12.1011 6.31362 12.1769 6.27859C12.1584 6.28748 12.1394 6.29616 12.1198 6.30466C12.0667 6.29808 12.0263 6.24393 11.9922 6.15333C11.9868 6.13889 11.9816 6.12378 11.9758 6.1062C11.9725 6.09589 11.9618 6.06192 11.9664 6.05438C12.2162 5.9403 12.4146 5.78931 12.5308 5.62379L12.515 5.52744C12.5185 5.52243 12.5219 5.5174 12.5252 5.51235L12.512 5.5093L12.515 5.52744C12.2809 5.86602 11.7375 6.12425 11.1844 6.18215C10.6497 6.23815 10.2398 6.40369 9.84162 6.66939C9.82502 6.63803 9.8051 6.61955 9.755 6.58291L9.75481 6.58277C9.74154 6.57306 9.73557 6.56862 9.72831 6.56295C9.52668 6.40616 9.43443 6.20875 9.44785 6.02602C9.45723 5.89834 9.52054 5.80307 9.59346 5.79353C9.60703 5.80114 9.62109 5.80793 9.63622 5.81409L9.64143 5.79981C9.62529 5.79339 9.60915 5.79148 9.59346 5.79353C9.58029 5.78614 9.56758 5.77798 9.55479 5.76887C9.54274 5.76028 9.51081 5.73522 9.50148 5.7279C9.49996 5.72671 9.49904 5.72599 9.49891 5.72589C9.42848 5.67108 9.28484 5.89341 9.30277 6.12818C9.3109 6.23447 9.39686 6.4061 9.48585 6.51099L9.4791 6.5236C9.33185 6.49545 9.26205 6.45506 9.17901 6.33613C9.22178 6.30817 9.27856 6.28917 9.3309 6.28325L9.33481 6.29284L9.33505 6.29243L9.34097 6.28227C9.3377 6.28254 9.33441 6.28286 9.3311 6.28323C9.33103 6.28324 9.33097 6.28325 9.3309 6.28325L9.32017 6.25697C9.30976 6.23109 9.30209 6.20834 9.29802 6.18654C9.29486 6.16962 9.29387 6.15327 9.29546 6.13644C9.29328 6.13642 9.29109 6.13643 9.28889 6.13646C9.21791 6.13749 9.13651 6.16483 9.06016 6.21201C9.04928 6.20063 9.03802 6.18902 9.02615 6.17692C9.00574 6.15611 8.95277 6.10339 8.91568 6.06646C8.89739 6.04825 8.88296 6.03389 8.87819 6.02908C8.73546 5.88526 8.65453 5.78411 8.59395 5.65886C8.51389 5.49311 8.50439 5.34215 8.56051 5.26335C8.59792 5.21082 8.6571 5.19995 8.72402 5.23127C8.73204 5.23893 8.73991 5.24645 8.74751 5.25371C8.76102 5.26661 8.77367 5.27869 8.78472 5.28924C8.69643 5.21413 8.61642 5.21037 8.57217 5.2725C8.51999 5.34577 8.52912 5.49084 8.60694 5.65194C8.66661 5.7753 8.74663 5.87532 8.88827 6.01805C8.89301 6.02282 8.90737 6.03712 8.9256 6.05527C8.9627 6.09219 9.0158 6.14506 9.0363 6.16595C9.04821 6.17809 9.05951 6.18975 9.06121 6.20027C9.12886 6.15202 9.20986 6.12394 9.28809 6.12719C9.27045 5.88273 9.42274 5.64759 9.50749 5.71354C9.50767 5.71367 9.50878 5.71454 9.51059 5.71596C9.52051 5.72374 9.5514 5.74797 9.56297 5.75622C9.58806 5.7741 9.61276 5.78814 9.64149 5.79983L9.63628 5.81411C9.55655 5.78242 9.47313 5.88074 9.46237 6.0272C9.44935 6.20451 9.53926 6.39691 9.73699 6.55067C9.7441 6.55623 9.74999 6.56061 9.76313 6.57022L9.76333 6.57036C9.81522 6.60832 9.83631 6.62788 9.84397 6.65929C10.2336 6.38963 10.6457 6.2232 11.183 6.16694ZM9.33747 6.29793C9.28588 6.30291 9.22894 6.32121 9.18846 6.33774C9.26698 6.43733 9.33119 6.47712 9.46126 6.50446C9.41457 6.44576 9.36984 6.37086 9.33747 6.29793ZM8.79477 5.27816C8.77065 5.25759 8.74689 5.24197 8.72402 5.23127C8.66735 5.17715 8.60373 5.11651 8.58015 5.09498C8.50193 5.0236 8.44305 4.97824 8.38613 4.94778C8.37402 4.94131 8.36205 4.93555 8.35014 4.9305C8.18103 4.85858 8.00271 5.03888 8.0867 5.30301C8.17993 5.59653 8.29863 5.76484 8.57286 6.05464L8.59311 6.07604C8.85773 6.35557 8.96854 6.5081 9.05945 6.77244C9.12108 6.95189 9.18675 7.06942 9.26979 7.13003C9.36859 7.20213 9.49019 7.18913 9.64401 7.07653C9.66222 7.06321 9.67488 7.05408 9.69617 7.03882L9.69681 7.03836C9.7111 7.02807 9.72234 7.01986 9.73809 7.00817C9.85536 6.93701 9.99904 7.05574 10.0047 7.24862C10.0003 7.26144 9.99526 7.2748 9.98969 7.28878L10.0037 7.29234C10.0048 7.2774 10.0051 7.26281 10.0047 7.24862C10.0434 7.13731 10.0407 7.06689 10.0049 6.98989C9.99815 6.97533 9.99021 6.96023 9.97925 6.94076C9.97906 6.94041 9.97883 6.94002 9.97859 6.93958C9.97287 6.92944 9.95417 6.89632 9.95824 6.88979C9.93972 6.90015 9.92476 6.89182 9.91422 6.86997C9.907 6.85497 9.90224 6.83702 9.89462 6.80082L9.89277 6.79201C9.88311 6.74605 9.87693 6.72668 9.86841 6.72073L9.8686 6.70787C10.0936 6.56104 10.3209 6.44992 10.5911 6.37715C10.605 6.51367 10.6402 6.58317 10.7124 6.57051C10.7468 6.56248 10.7804 6.55525 10.814 6.5487C10.8291 6.55601 10.8467 6.558 10.867 6.55444C10.8166 6.56324 10.767 6.57343 10.7152 6.58551C10.6304 6.6004 10.5914 6.52337 10.5859 6.38531C10.3294 6.46326 10.1055 6.57212 9.88425 6.71568C9.89277 6.72726 9.89845 6.74806 9.90699 6.78872L9.90884 6.79753C9.91617 6.83236 9.92076 6.84965 9.92722 6.86306C9.93448 6.87813 9.94132 6.88193 9.96108 6.87915L9.99179 6.93299C10.0029 6.95278 10.011 6.9682 10.018 6.98319C10.0598 7.07326 10.0586 7.15549 10.0031 7.29468L9.98915 7.29112C10.005 7.08413 9.85988 6.95193 9.74594 7.02103C9.73069 7.03238 9.71939 7.04064 9.70504 7.05097L9.7044 7.05143C9.68311 7.0667 9.6705 7.07579 9.65234 7.08907C9.49392 7.20504 9.36582 7.21874 9.26148 7.14258C9.17529 7.07968 9.10833 6.95983 9.04575 6.77763C8.95576 6.51594 8.84601 6.36488 8.58278 6.08682L8.56253 6.06542C8.28684 5.77408 8.167 5.60414 8.07288 5.30785C7.98499 5.03145 8.17487 4.83946 8.3556 4.91633C8.36791 4.92155 8.38026 4.92749 8.39274 4.93416C8.45094 4.96529 8.51066 5.01131 8.5897 5.08344C8.61677 5.10815 8.6961 5.18393 8.75753 5.2426C8.77106 5.25553 8.78372 5.26762 8.79477 5.27816ZM10.8646 6.53936L10.867 6.55444L10.8646 6.53936C10.8646 6.53936 10.8646 6.53936 10.8646 6.53936ZM10.8646 6.53936C10.7932 6.5519 10.7591 6.47847 10.7446 6.33569C10.8816 6.30955 11.0323 6.28517 11.1919 6.27146C11.3849 6.25485 11.582 6.21364 11.7655 6.15111C11.8035 6.31884 11.8607 6.41727 11.9446 6.38779C12.0318 6.35845 12.1107 6.32711 12.1826 6.29268C12.1843 6.29189 12.186 6.29106 12.1877 6.29019L12.1816 6.27635C12.18 6.2771 12.1785 6.27784 12.1769 6.27859C12.1784 6.27789 12.1799 6.27716 12.1815 6.27639L12.1876 6.29024C12.186 6.29105 12.1843 6.29187 12.1826 6.29268C12.1598 6.30321 12.139 6.30703 12.1198 6.30466C12.0642 6.32889 12.0044 6.35161 11.9401 6.37326C11.869 6.39823 11.8149 6.30512 11.7702 6.14173C11.5786 6.19873 11.3825 6.2397 11.1907 6.25622C11.0304 6.26999 10.8791 6.29448 10.7357 6.32905C10.7431 6.45006 10.7665 6.5257 10.814 6.5487C10.8308 6.54542 10.8477 6.54231 10.8646 6.53936ZM8.79477 5.27816C8.80683 5.28845 8.81898 5.29998 8.83115 5.31275L8.82115 5.32385C8.81429 5.31742 8.80131 5.30506 8.78472 5.28924C8.79664 5.29937 8.8087 5.31081 8.82085 5.32356L8.83085 5.31245C8.82406 5.30608 8.81121 5.29385 8.79477 5.27816Z" fill="black"/>
<path fill-rule="evenodd" clip-rule="evenodd" d="M13.7458 8.90469C13.6498 9.31396 13.7627 9.77564 14.0219 10.0233L14.0217 10.0348C13.6638 10.3581 13.2857 10.6111 12.8866 10.8148C12.7693 10.8747 12.6693 10.9418 12.5601 11.0294C12.533 11.0511 12.5062 11.0734 12.4716 11.1027C12.4747 11.1 12.4056 11.1587 12.3866 11.1747C12.3013 11.2462 12.2377 11.2943 12.1692 11.3365C12.5654 11.407 13.0161 11.7911 13.3178 12.2941C13.6748 12.8891 14.03 13.1812 14.6079 13.4837C14.9291 13.652 14.9125 13.8693 14.6541 14.191C14.4821 14.4051 14.4137 14.5782 14.3139 14.9645C14.2051 15.3855 14.1294 15.5721 13.9282 15.8104C13.7441 16.0285 13.491 15.9519 13.4638 15.7492C13.4542 15.6766 13.4598 15.5946 13.4797 15.4804C13.4886 15.4291 13.5251 15.2535 13.5431 15.1668L13.553 15.1189C13.5554 15.1068 13.5575 15.095 13.5592 15.0832C13.5589 15.0995 13.5612 15.1149 13.5658 15.1292L13.5573 15.1705C13.5392 15.2574 13.5029 15.4322 13.494 15.4831C13.4744 15.5959 13.4689 15.6765 13.4783 15.7471C13.5037 15.9368 13.7414 16.0087 13.9173 15.8003C14.1166 15.5642 14.1916 15.3794 14.2998 14.9605C14.4001 14.5721 14.4692 14.3974 14.643 14.1811C14.8962 13.8659 14.9119 13.6601 14.6014 13.4973C14.0213 13.1937 13.6641 12.9001 13.3055 12.3023C13.0007 11.794 12.5429 11.4082 12.1466 11.3482L12.1441 11.334C12.2188 11.2897 12.2853 11.2399 12.3775 11.1627C12.3965 11.1468 12.4655 11.0882 12.4624 11.0908C12.4972 11.0614 12.5241 11.0391 12.5513 11.0173C12.6612 10.929 12.762 10.8614 12.8802 10.8011C13.2759 10.5991 13.6509 10.3485 14.006 10.0288L14.0121 10.0346L14.0122 10.0232L14.006 10.0288C13.747 9.77579 13.6352 9.31238 13.7332 8.90781C13.544 8.67385 13.0715 8.57715 12.7079 8.6751C12.3582 8.93468 12.067 9.2672 11.7907 9.69163C11.7146 9.80849 11.5607 10.0762 11.4109 10.3368L11.4109 10.3369C11.2553 10.6076 11.1041 10.8707 11.0492 10.9489C11.0319 10.9734 11.015 10.9965 10.9982 11.0183C10.8312 11.2343 10.8271 11.6661 11.0736 11.8709C11.0851 11.8805 11.0962 11.8902 11.1071 11.9C11.1404 11.9302 11.1707 11.9614 11.2063 12.0014L11.2483 12.0497L11.2483 12.0497L11.2484 12.0498C11.2764 12.0821 11.3101 12.121 11.3255 12.1382C11.379 12.198 11.4322 12.2532 11.496 12.3135C11.6607 12.469 11.8835 12.646 12.1994 12.8655C12.3602 12.9772 12.8659 13.3112 12.8634 13.3095C13.0869 13.4603 13.2135 13.5585 13.2837 13.6421C13.5094 13.9109 13.5918 14.0668 13.5639 14.273C13.5524 14.3583 13.5489 14.4341 13.5523 14.529L13.5453 14.5276L13.5379 14.5346C13.5342 14.4365 13.5376 14.3587 13.5495 14.2708C13.5765 14.0707 13.4957 13.9177 13.2728 13.6523C13.2038 13.5701 13.0778 13.4724 12.8555 13.3224C12.8581 13.3242 12.3524 12.9901 12.1914 12.8783C11.8749 12.6583 11.6515 12.4809 11.4863 12.3249C11.4222 12.2643 11.3686 12.2088 11.3149 12.1487C11.2994 12.1313 11.2655 12.0922 11.2374 12.0598L11.1956 12.0118C11.1604 11.9722 11.1305 11.9414 11.0976 11.9116C11.0869 11.9019 11.0759 11.8924 11.0645 11.8829C10.811 11.6722 10.8152 11.2307 10.9869 11.0086C11.0035 10.9871 11.0203 10.9642 11.0375 10.9398C11.092 10.8622 11.2425 10.6004 11.3977 10.3303L11.3977 10.3303L11.3977 10.3303L11.3977 10.3303L11.3977 10.3303L11.3977 10.3303L11.3977 10.3303C11.5477 10.0692 11.7022 9.80047 11.7786 9.683C12.0559 9.25718 12.3482 8.92337 12.7019 8.66145C13.0728 8.56101 13.551 8.65888 13.7458 8.90469ZM13.5387 14.5531L13.5379 14.5346L13.5367 14.5357C13.5371 14.5416 13.5378 14.5475 13.5387 14.5531ZM13.5561 14.6066C13.5476 14.5905 13.5417 14.5727 13.5387 14.5531C13.541 14.6061 13.5453 14.6652 13.5513 14.7348L13.5523 14.7465L13.5499 14.7484C13.5512 14.7626 13.5532 14.776 13.5558 14.7888C13.5671 14.9282 13.5695 15.0005 13.5613 15.0678L13.5603 15.0684C13.5597 15.0734 13.5594 15.0783 13.5592 15.0832L13.5613 15.0678L13.5707 15.0625L13.5763 15.0654C13.5757 15.0707 13.575 15.0761 13.5742 15.0814L13.5739 15.0812C13.574 15.0776 13.5743 15.074 13.5747 15.0703L13.5643 15.0762L13.5739 15.0812C13.5739 15.0823 13.5738 15.0833 13.5738 15.0844C13.572 15.0968 13.5698 15.1092 13.5673 15.122L13.5658 15.1292C13.5967 15.2239 13.7324 15.2714 13.8949 15.2464L13.8971 15.232L13.5763 15.0654C13.5829 15.0083 13.582 14.9472 13.5748 14.8458C13.627 14.9524 13.7627 14.9864 14.0486 14.9615L14.0507 14.9468L13.5667 14.7434L13.5658 14.7335C13.5618 14.6868 13.5586 14.645 13.5561 14.6066ZM13.5532 14.5513C13.5539 14.569 13.5549 14.5873 13.5561 14.6066C13.6195 14.7255 13.8298 14.7477 14.131 14.6549L14.1303 14.64L13.5523 14.529L13.5529 14.5446L13.5522 14.5445L13.5512 14.5346L13.5427 14.5427L13.5522 14.5445L13.5532 14.5513ZM14.0969 14.6492C13.78 14.7406 13.5771 14.6979 13.5532 14.5513L13.5529 14.5446L14.0969 14.6492ZM14.0969 14.6492L14.1269 14.6402L14.1276 14.6551L14.0969 14.6492ZM13.5681 14.7605L13.5667 14.7434L13.5598 14.7405L13.5523 14.7465L13.5558 14.7888C13.5602 14.8097 13.5664 14.8287 13.5748 14.8458C13.5735 14.8274 13.572 14.8076 13.5702 14.7862C13.5994 14.9232 13.7149 14.9714 14.0163 14.9488L14.0453 14.961L14.0474 14.9462L14.0163 14.9488L13.5681 14.7605ZM13.5658 14.7595C13.5669 14.7687 13.5684 14.7776 13.5702 14.7862L13.5681 14.7605L13.5658 14.7595ZM13.5658 14.7595L13.5644 14.7469L13.5544 14.7547L13.5658 14.7595ZM13.8689 15.2345L13.5742 15.0814C13.5741 15.0824 13.574 15.0834 13.5738 15.0844C13.5724 15.1912 13.7016 15.2531 13.8689 15.2345ZM13.8689 15.2345L13.8906 15.2457L13.8928 15.2313C13.8848 15.2326 13.8768 15.2336 13.8689 15.2345Z" fill="black"/>
<path fill-rule="evenodd" clip-rule="evenodd" d="M13.2616 9.73384C13.4753 9.61817 13.5642 9.56117 13.719 9.4241L13.7308 9.42855C13.7329 9.4405 13.7361 9.45614 13.7394 9.47244C13.7442 9.49607 13.7493 9.52111 13.7519 9.53841C13.6137 9.65525 13.5332 9.70571 13.3339 9.81357L13.2929 9.83594C13.0839 9.95117 12.9425 10.0644 12.7361 10.3075C12.4782 10.6111 12.0899 10.9592 11.8612 11.0942L11.7968 11.016C12.0155 10.8808 12.4026 10.5337 12.6594 10.2312C12.8672 9.98663 13.0099 9.8723 13.2206 9.7562L13.2616 9.73384ZM13.7165 9.43135L13.7283 9.43579C13.7252 9.43861 13.722 9.44139 13.7189 9.44414C13.718 9.43958 13.7172 9.43527 13.7165 9.43135ZM13.7189 9.44414C13.5688 9.57614 13.4785 9.63365 13.2683 9.74743L13.2274 9.76974C13.0181 9.88501 12.8768 9.99822 12.6703 10.2414C12.4126 10.545 12.0243 10.8931 11.8055 11.0171L11.8625 11.0821C12.0811 10.9469 12.4683 10.5998 12.7252 10.2973C12.9329 10.0528 13.0756 9.93846 13.2861 9.8224L13.3273 9.79998C13.5257 9.69256 13.6055 9.64254 13.7404 9.5349C13.7343 9.51608 13.7248 9.47439 13.7189 9.44414Z" fill="black"/>
<path fill-rule="evenodd" clip-rule="evenodd" d="M12.597 11.8967L12.6059 11.8846C12.6663 11.9314 12.7236 11.9803 12.7775 12.0313L12.768 12.0429L12.597 11.8967ZM12.5973 11.8969C12.6573 11.9434 12.7142 11.992 12.7677 12.0426L12.7772 12.031L12.6062 11.8848L12.5973 11.8969ZM13.5606 13.0075C13.5608 13.0076 13.561 13.0078 13.5611 13.008L13.5724 12.9963L13.5721 12.996C13.5723 12.9962 13.5724 12.9963 13.5725 12.9964L13.5612 13.0082L13.5606 13.0075ZM13.4396 12.8801L13.5606 13.0075C13.5211 12.9681 13.481 12.9259 13.4396 12.8801ZM13.4392 12.8796C13.4393 12.8798 13.4395 12.8799 13.4396 12.8801L13.4392 12.8796L13.4392 12.8796ZM13.4507 12.8682L13.4392 12.8796C13.4391 12.8795 13.4391 12.8795 13.439 12.8794L13.4506 12.868L13.4507 12.8682ZM13.4511 12.8686L13.5721 12.996C13.5326 12.9567 13.4926 12.9145 13.4511 12.8686ZM13.4511 12.8686L13.4507 12.8682L13.4507 12.8682C13.4509 12.8683 13.451 12.8685 13.4511 12.8686Z" fill="black"/>
<path fill-rule="evenodd" clip-rule="evenodd" d="M11.8748 11.6733L11.8708 11.6598C11.8766 11.6603 11.8825 11.6609 11.8884 11.6615L11.8748 11.6733ZM12.7257 11.6312C12.7378 11.6606 12.7357 11.6943 12.721 11.7315C12.7077 11.7654 12.685 11.8005 12.6525 11.8413C12.6404 11.8565 12.6284 11.8707 12.5973 11.8969C12.3779 11.7267 12.1543 11.6218 11.9599 11.5991L11.8884 11.6615C12.2847 11.7051 12.7693 12.07 13.0936 12.544C13.4071 13.0022 13.7485 13.292 14.1669 13.5213C14.1493 13.5523 14.144 13.5797 14.1389 13.6438L14.1388 13.6455C14.1376 13.6607 14.1369 13.6686 14.1359 13.6777C14.1073 13.9394 13.9906 14.122 13.8332 14.2011C13.7233 14.2564 13.6132 14.2465 13.5687 14.1852C13.5682 14.1692 13.5667 14.1534 13.5641 14.1358L13.5498 14.1382C13.5526 14.1562 13.5591 14.1719 13.5687 14.1852C13.5695 14.2116 13.5676 14.2382 13.5636 14.273C13.5617 14.2893 13.5609 14.2967 13.5601 14.3048C13.5501 14.3963 13.8053 14.4157 13.9899 14.282C14.0735 14.2215 14.172 14.0577 14.2142 13.9242L14.228 13.924C14.2783 14.0718 14.2798 14.1555 14.2234 14.2905C14.179 14.2657 14.135 14.2237 14.1038 14.1789C14.1066 14.175 14.1088 14.1719 14.1097 14.1706L14.1092 14.1706L14.0979 14.1703C14.0998 14.1731 14.1017 14.1759 14.1036 14.1787C14.1037 14.1788 14.1037 14.1789 14.1038 14.1789C14.103 14.18 14.1022 14.1811 14.1014 14.1823C14.0946 14.1919 14.0857 14.2043 14.0819 14.2094C14.0701 14.2254 14.0592 14.2388 14.0471 14.2516C14.0404 14.2587 14.0334 14.2655 14.0264 14.2711C14.0178 14.2778 14.0091 14.2828 14.0004 14.2845C14.0015 14.2865 14.0026 14.2885 14.0037 14.2905C14.04 14.3545 14.1032 14.4148 14.1804 14.4607C14.1672 14.5127 14.1642 14.5257 14.1353 14.6531C14.0773 14.9089 14.0378 15.0312 13.9572 15.1611C13.8606 15.3168 13.7408 15.4009 13.6477 15.3893C13.5856 15.3815 13.5471 15.333 13.5395 15.2564C13.5461 15.2243 13.5524 15.1944 13.5572 15.1708C13.5388 15.2896 13.5757 15.3649 13.6495 15.3741C13.736 15.3849 13.8511 15.3041 13.945 15.1528C14.0244 15.0248 14.0635 14.9037 14.1212 14.6495C14.1501 14.522 14.1531 14.509 14.1702 14.4656C14.0965 14.4282 14.0328 14.3686 13.9965 14.2959C13.8037 14.4341 13.5336 14.4132 13.5456 14.3032C13.5464 14.2951 13.5472 14.2875 13.5492 14.2711C13.5555 14.2166 13.5564 14.1831 13.5498 14.1382L13.5641 14.1358C13.5779 14.2241 13.7007 14.2508 13.8269 14.1873C13.9797 14.1105 14.0934 13.9326 14.1214 13.6759C14.1224 13.6671 14.1231 13.6592 14.1243 13.6442L14.1244 13.6425C14.1297 13.5761 14.1353 13.5471 14.1574 13.5243C13.7399 13.3046 13.3967 13.0133 13.0818 12.553C12.7549 12.0752 12.2642 11.7091 11.8696 11.675L11.8655 11.6615L11.956 11.5857C12.1586 11.6069 12.3846 11.7129 12.5962 11.8857C12.6175 11.8606 12.6294 11.8465 12.6413 11.8315C12.673 11.7917 12.6949 11.7578 12.7076 11.7257C12.7291 11.6711 12.7212 11.6273 12.6765 11.5931C12.6928 11.6052 12.7092 11.6179 12.7257 11.6312ZM13.5811 12.6976C13.586 12.7523 13.5353 12.8113 13.4391 12.8786C13.3391 12.7658 13.2433 12.6404 13.1516 12.5013C13.0421 12.3352 12.9103 12.1775 12.7674 12.0316C12.8799 11.9091 12.9295 11.8136 12.8734 11.7614C12.823 11.7132 12.7739 11.6699 12.7257 11.6312C12.718 11.6126 12.7046 11.5956 12.685 11.5806C12.7495 11.6287 12.8151 11.6851 12.8831 11.75C12.9494 11.8116 12.8969 11.9126 12.7775 12.0313C12.9209 12.1669 13.0535 12.3255 13.1636 12.4926C13.2549 12.6311 13.3503 12.7559 13.4401 12.8672C13.5509 12.7825 13.5942 12.715 13.5481 12.6562C13.5591 12.6702 13.5701 12.684 13.5811 12.6976ZM13.5593 12.6465L13.5481 12.6562C13.5481 12.6562 13.5481 12.6562 13.5481 12.6562L13.5593 12.6465ZM14.1836 13.4595C13.9546 13.33 13.7531 13.181 13.5605 12.9866C13.6716 12.9129 13.7157 12.8387 13.6609 12.7691C13.6259 12.7291 13.5925 12.6888 13.5593 12.6465L13.5593 12.6465C13.5724 12.6632 13.5796 12.6802 13.5811 12.6976C13.6037 12.7253 13.6265 12.7523 13.6499 12.7791C13.6966 12.8384 13.6567 12.9053 13.5511 12.986C13.7464 13.1954 13.9516 13.3465 14.1851 13.4777L14.1958 13.4714C14.1965 13.46 14.2088 13.4458 14.2479 13.4083L14.2546 13.4019C14.2773 13.3799 14.2899 13.3659 14.2977 13.3523C14.3088 13.3331 14.3074 13.3162 14.2905 13.3052C14.2952 13.3098 14.3165 13.2706 14.3258 13.2537C14.3267 13.2519 14.3275 13.2504 14.3282 13.2492C14.3829 13.1497 14.4363 13.1063 14.5633 13.0834C14.4069 13.185 14.3808 13.3751 14.4982 13.4461C14.5152 13.4544 14.5271 13.4603 14.5434 13.4685L14.5439 13.4688C14.5771 13.4854 14.5805 13.4871 14.6016 13.4974C14.7714 13.581 14.8429 13.6851 14.8328 13.811C14.8243 13.9168 14.7602 14.0353 14.643 14.1811C14.4692 14.3974 14.4002 14.5722 14.2998 14.9605C14.1917 15.3794 14.1166 15.5642 13.9173 15.8003C13.7414 16.0087 13.5037 15.9368 13.4783 15.7471C13.4689 15.6765 13.4744 15.5959 13.4941 15.4831C13.5005 15.446 13.5216 15.3431 13.5395 15.2564C13.5369 15.2299 13.538 15.2 13.5431 15.1672C13.5431 15.1671 13.5431 15.167 13.5432 15.1668C13.5484 15.1416 13.5521 15.1238 13.5531 15.1189L13.5672 15.1225C13.563 15.1393 13.5596 15.1554 13.5572 15.1708C13.5573 15.1707 13.5573 15.1706 13.5573 15.1705C13.5626 15.145 13.5663 15.1271 13.5673 15.122L13.5532 15.1185C13.5489 15.1353 13.5455 15.1516 13.5431 15.1672C13.525 15.2541 13.4887 15.4292 13.4797 15.4804C13.4598 15.5946 13.4542 15.6767 13.4639 15.7492C13.491 15.952 13.7442 16.0285 13.9282 15.8104C14.1294 15.5721 14.2052 15.3855 14.3139 14.9646C14.4137 14.5782 14.4821 14.4051 14.6542 14.191C14.7731 14.0429 14.8385 13.9221 14.8473 13.8123C14.8579 13.6793 14.7826 13.5697 14.6078 13.4836C14.5868 13.4733 14.5833 13.4716 14.5502 13.455L14.5497 13.4547C14.5333 13.4465 14.5214 13.4406 14.5049 13.4326C14.3908 13.3636 14.4274 13.1655 14.6059 13.0764L14.6019 13.0619C14.4406 13.0836 14.3781 13.128 14.3156 13.2415C14.3103 13.2511 14.2953 13.2795 14.2866 13.296C14.2834 13.3021 14.281 13.3066 14.2803 13.3079C14.292 13.3242 14.2926 13.3316 14.2852 13.3444C14.2784 13.3563 14.2664 13.3696 14.2447 13.3906L14.2381 13.397C14.2034 13.4304 14.1887 13.4458 14.1836 13.4595ZM14.5633 13.0834C14.5747 13.0759 14.5868 13.069 14.5997 13.0626L14.6037 13.0771C14.5895 13.079 14.576 13.0811 14.5633 13.0834ZM12.685 11.5806C12.6837 11.5797 12.6824 11.5788 12.6812 11.5778L12.6729 11.5904C12.6741 11.5913 12.6753 11.5922 12.6765 11.5931C12.6752 11.5922 12.674 11.5912 12.6728 11.5903L12.6811 11.5778C12.6824 11.5787 12.6837 11.5797 12.685 11.5806ZM14.1126 14.1656C14.1427 14.2102 14.1862 14.2527 14.22 14.2811C14.2628 14.1599 14.2635 14.0816 14.2211 13.9498C14.1959 14.0217 14.1565 14.0997 14.1126 14.1656Z" fill="black"/>
<path fill-rule="evenodd" clip-rule="evenodd" d="M14.6239 12.8735L14.5089 12.7275L14.4962 12.7306L14.4543 12.921L14.2735 12.9192L14.268 12.9316L14.3845 13.0848L14.2709 13.2309L14.2767 13.2432L14.4637 13.2445L14.5008 13.4287L14.5135 13.4317L14.6309 13.279L14.7931 13.3624L14.8032 13.3537L14.7608 13.1631L14.9246 13.0827L14.9245 13.069L14.7558 12.9832L14.7995 12.7998L14.7893 12.7913L14.6239 12.8735ZM14.7821 12.8117L14.625 12.8898L14.6163 12.8878L14.5068 12.7487L14.5104 12.7341L14.4977 12.7372L14.5068 12.7487L14.4615 12.9303L14.2881 12.9342L14.2794 12.9221L14.2738 12.9345L14.2881 12.9342L14.396 13.0846L14.2911 13.2285L14.2768 13.2279L14.2825 13.2402L14.2911 13.2285L14.4708 13.235L14.5116 13.4106L14.5022 13.4221L14.5149 13.4251L14.5116 13.4106L14.6282 13.2673L14.7861 13.3423L14.789 13.3572L14.7991 13.3485L14.7861 13.3423L14.7504 13.1581L14.9054 13.0757L14.9182 13.0827L14.9181 13.069L14.9054 13.0757L14.7455 12.9885L14.7821 12.8117ZM14.7821 12.8117L14.7955 12.8051L14.7853 12.7965L14.7821 12.8117Z" fill="black"/>
<path fill-rule="evenodd" clip-rule="evenodd" d="M14.0586 8.85379C14.4441 8.73633 14.7686 8.40279 14.8432 8.04348L14.8527 8.0379C15.2986 8.20188 15.6967 8.41924 16.0638 8.68C16.2161 8.78817 16.307 8.83161 16.5742 8.93986C16.7015 8.99142 16.7764 9.02578 16.8526 9.0714C16.7128 8.67579 16.8042 8.07396 17.0683 7.54809C17.3806 6.92608 17.4438 6.45741 17.4045 5.78038C17.3826 5.404 17.5701 5.31049 17.9647 5.38462C18.2221 5.43302 18.4058 5.40908 18.7528 5.31283L18.7798 5.30535C19.1733 5.19599 19.3681 5.17165 19.6635 5.23505C19.9354 5.29334 19.9987 5.56197 19.845 5.68784C19.7867 5.73558 19.7117 5.77282 19.5958 5.81503C19.5593 5.82832 19.4467 5.86608 19.3653 5.89337L19.3653 5.89338C19.3254 5.90675 19.2931 5.91761 19.2808 5.92186L19.2686 5.92624C19.2806 5.91858 19.2908 5.9096 19.2994 5.89947L19.3611 5.87873L19.3612 5.87872C19.4425 5.85143 19.5547 5.8138 19.591 5.80059C19.7055 5.75888 19.7793 5.72226 19.836 5.67578C19.9799 5.55801 19.9204 5.30573 19.6606 5.25003C19.368 5.18722 19.175 5.21133 18.7835 5.32013L18.7566 5.32761C18.4076 5.42438 18.2221 5.44856 17.9621 5.39967C17.5755 5.32703 17.3979 5.41561 17.419 5.77945C17.4585 6.45903 17.3949 6.93033 17.0811 7.55522C16.8143 8.08658 16.725 8.69574 16.8736 9.08607L16.8631 9.09549C16.7813 9.04476 16.7055 9.00944 16.5689 8.95412C16.3007 8.84547 16.2091 8.80169 16.0556 8.69267C15.6917 8.43411 15.2972 8.21837 14.8556 8.05518L14.8574 8.04674L14.8479 8.05233L14.8556 8.05518C14.7766 8.41699 14.4501 8.7504 14.0675 8.86371C13.969 9.15264 14.1255 9.63041 14.3881 9.9123C14.53 9.98097 14.6775 10.038 14.831 10.0846C15.3041 10.228 15.6916 10.2592 16.4614 10.2611C16.8566 10.2621 17.0109 10.2677 17.1757 10.2953C17.4374 10.3391 17.7956 10.1268 17.8413 9.80045C17.8489 9.74626 17.8597 9.69659 17.8754 9.63973C17.8852 9.60456 17.928 9.46448 17.9239 9.47825C17.9457 9.4056 17.9627 9.34207 17.9793 9.26873C18.0334 9.03011 18.073 8.72197 18.0987 8.27939C18.1086 8.10878 18.1113 8.04119 18.1242 7.67696C18.1404 7.22076 18.1554 7.03543 18.1972 6.90518C18.3063 6.56532 18.3935 6.41272 18.5774 6.33502C18.6511 6.30389 18.7194 6.26649 18.7944 6.21748L18.7968 6.22456L18.8061 6.22778C18.7289 6.27855 18.6588 6.31713 18.5829 6.34921C18.4043 6.42464 18.3188 6.57432 18.211 6.91006C18.1698 7.03826 18.1549 7.2233 18.1388 7.67753C18.1259 8.0419 18.1232 8.10954 18.1133 8.28032C18.0875 8.72372 18.0478 9.03272 17.9935 9.27227C17.9768 9.346 17.9597 9.40987 17.9378 9.48283C17.9419 9.46927 17.8991 9.60907 17.8894 9.644C17.8738 9.70023 17.8632 9.74922 17.8557 9.80268C17.8087 10.1384 17.4425 10.3554 17.1734 10.3104C17.0096 10.283 16.8558 10.2774 16.4614 10.2764C15.6902 10.2745 15.3018 10.2432 14.827 10.0993C14.6727 10.0525 14.5246 9.99518 14.3799 9.92459C14.1115 9.63731 13.9532 9.15375 14.0586 8.85379ZM18.8211 6.21787L18.8061 6.22778L18.8077 6.22832C18.8124 6.22498 18.8169 6.2215 18.8211 6.21787ZM18.8563 6.17545C18.8474 6.19118 18.8356 6.20537 18.8211 6.21787C18.8453 6.20165 18.8703 6.18423 18.8964 6.16543C18.9111 6.15487 18.9435 6.13109 18.9738 6.10878L18.9766 6.11004C18.9876 6.10171 18.9978 6.09316 19.007 6.08434L19.0375 6.06195C19.0903 6.02369 19.1309 5.9964 19.1703 5.97362C19.1935 5.96024 19.2157 5.94874 19.2374 5.93904L19.2402 5.94058C19.2505 5.93652 19.26 5.93172 19.2686 5.92624C19.2583 5.9301 19.2479 5.93436 19.2374 5.93904L19.2286 5.93404L19.2281 5.92663C19.2334 5.92419 19.2387 5.92187 19.244 5.91964L19.2442 5.9218C19.2407 5.92349 19.2371 5.92506 19.2334 5.92652L19.245 5.93306L19.2442 5.9218C19.2492 5.91937 19.254 5.91672 19.2584 5.91384C19.2644 5.91154 19.2703 5.90937 19.2762 5.90733L19.2994 5.89947C19.3643 5.82243 19.3304 5.67919 19.2168 5.54716L19.2019 5.55239L19.2281 5.92663C19.207 5.93618 19.1856 5.94736 19.1633 5.96023C19.1274 5.981 19.0905 6.0054 19.0447 6.03818C19.1061 5.93739 19.0662 5.79711 18.903 5.54999L18.8899 5.55544L18.9641 6.09724C18.9342 6.11924 18.9026 6.14245 18.8882 6.15281L18.8563 6.17545ZM18.8123 6.20559C18.8267 6.19598 18.8413 6.18595 18.8563 6.17545C18.923 6.05841 18.8363 5.85596 18.6088 5.62832L18.597 5.63643L18.7944 6.21748L18.807 6.20915L18.8072 6.20985L18.7995 6.21566L18.8105 6.21942L18.8072 6.20985L18.8123 6.20559ZM18.6212 5.66218C18.8551 5.90461 18.9214 6.11049 18.8123 6.20559L18.807 6.20915L18.6212 5.66218ZM18.6212 5.66218L18.5988 5.63939L18.6107 5.63129L18.6212 5.66218ZM18.9774 6.0874L18.9641 6.09724L18.9651 6.10492L18.9738 6.10878L18.99 6.09681L18.99 6.09679L19.007 6.08434C19.0222 6.0698 19.0348 6.05451 19.0447 6.03818L19.0292 6.04937L18.9977 6.07253C19.0959 5.97749 19.0779 5.84828 18.9087 5.58574L18.9043 5.55326L18.8911 5.5587L18.9087 5.58574L18.9774 6.0874ZM18.9778 6.09004C18.9849 6.08432 18.9915 6.07849 18.9977 6.07253L18.9816 6.08435L18.9774 6.0874L18.9778 6.09004ZM18.9778 6.09004L18.9681 6.09761L18.9795 6.10274L18.9778 6.09004ZM19.2201 5.57676L19.244 5.91964C19.2489 5.91762 19.2537 5.91569 19.2584 5.91384C19.3475 5.85663 19.329 5.71423 19.2201 5.57676ZM19.2201 5.57676L19.2183 5.55141L19.2035 5.55664C19.2092 5.56333 19.2148 5.57004 19.2201 5.57676Z" fill="black"/>
<path fill-rule="evenodd" clip-rule="evenodd" d="M14.6097 8.66318C14.5751 8.64786 14.5387 8.63298 14.5004 8.61845L14.4981 8.60544C14.5075 8.59705 14.5193 8.58587 14.5315 8.57436C14.5482 8.55855 14.5657 8.54211 14.5783 8.53134C14.5973 8.53908 14.6159 8.54692 14.634 8.55488C14.7749 8.61686 14.8366 8.65419 15.0231 8.77981C15.2468 8.93044 15.4014 9.00099 15.7205 9.07056C16.1 9.15337 16.5814 9.33233 16.8068 9.47264L16.7746 9.57033C16.5536 9.43913 16.0738 9.26069 15.6959 9.17837C15.3749 9.10839 15.2186 9.03709 14.9935 8.88546C14.8087 8.76103 14.7482 8.72431 14.6097 8.66318ZM14.5076 8.61707L14.5053 8.60406C14.5092 8.60554 14.5131 8.60702 14.5169 8.60851C14.5136 8.61157 14.5105 8.61445 14.5076 8.61707ZM14.5811 8.54349C14.5687 8.55848 14.5393 8.58776 14.5169 8.60851C14.5513 8.62172 14.584 8.63522 14.6154 8.64908C14.7548 8.71066 14.8159 8.7477 15.0014 8.87259C15.2251 9.02326 15.3797 9.09382 15.6988 9.1634C16.0781 9.24602 16.5594 9.42499 16.7711 9.56186L16.7961 9.47748C16.5756 9.34648 16.0957 9.16803 15.7176 9.08553C15.3966 9.01556 15.2403 8.94426 15.0152 8.79268C14.8294 8.66752 14.7683 8.63052 14.6283 8.56898C14.6273 8.56855 14.6264 8.56812 14.6254 8.56768C14.6084 8.56022 14.5913 8.55275 14.5811 8.54349Z" fill="black"/>
<path fill-rule="evenodd" clip-rule="evenodd" d="M17.4917 7.14571C17.5105 7.08941 17.5266 7.03627 17.5404 6.98493L17.5243 6.98105L17.5243 6.98127L17.5243 6.98127C17.5242 6.9813 17.5242 6.98134 17.5242 6.98138L17.4758 7.14107C17.4757 7.14112 17.4757 7.14117 17.4757 7.14123L17.4757 7.14123L17.4757 7.14142L17.4917 7.14571ZM17.4757 7.14123L17.4917 7.14552L17.5404 6.98515L17.5243 6.98127L17.5242 6.98138C17.5105 7.03235 17.4944 7.08514 17.4758 7.14107L17.4757 7.14123ZM15.0002 8.27969C14.9412 8.25672 14.8745 8.22238 14.8097 8.18235L14.8065 8.17335L14.8146 8.14747L14.8146 8.14747C14.8259 8.1106 14.839 8.06838 14.8527 8.0379C15.2986 8.20189 15.6967 8.41924 16.0638 8.68001C16.2161 8.78818 16.307 8.83162 16.5741 8.93986C16.7114 8.99546 16.7878 9.03105 16.8731 9.0928L16.7817 9.24022C16.6677 9.1701 16.3861 9.04387 16.1772 8.96383C16.1764 8.98545 16.1669 9.01024 16.1493 9.04252C16.1453 9.04986 16.141 9.05728 16.1351 9.06737C16.1077 9.11436 16.1023 9.12443 16.0975 9.14083C16.0918 9.16041 16.0959 9.17059 16.1134 9.17601L16.1093 9.19071L16.1092 9.19068L16.1132 9.17598L16.0823 9.16686C16.0797 9.15836 16.0802 9.1481 16.0836 9.13635C16.089 9.1181 16.0944 9.108 16.1227 9.05938C16.1285 9.04941 16.1327 9.04211 16.1366 9.03492C16.1561 8.99924 16.1647 8.97388 16.1623 8.95372L16.172 8.94557C16.3826 9.02565 16.6722 9.15518 16.7791 9.22973L16.8631 9.09549C16.7812 9.04476 16.7054 9.00944 16.5689 8.95413C16.3007 8.84547 16.2091 8.8017 16.0556 8.69267C15.6895 8.43261 15.2926 8.21586 14.8573 8.04693C14.85 8.07841 14.835 8.13128 14.8222 8.17229L14.8171 8.16917L14.8203 8.17817L14.8222 8.17229C14.8846 8.21055 14.9488 8.24356 15.0097 8.27468C15.0075 8.28248 15.0048 8.29039 15.0016 8.29842C14.9832 8.34449 14.9514 8.39019 14.8988 8.45253L14.8734 8.48218L14.8431 8.51767C14.8235 8.54094 14.8103 8.55822 14.8008 8.57333C14.7792 8.6076 14.7791 8.62659 14.8018 8.63816C14.8244 8.65006 14.8845 8.68813 14.9497 8.73082C14.9499 8.74272 14.9548 8.75216 14.9651 8.75898L14.9728 8.74604L14.9729 8.74605L14.9651 8.75899C14.892 8.71075 14.8199 8.6648 14.7953 8.65187C14.7627 8.63522 14.7629 8.60581 14.7886 8.56491C14.7986 8.54907 14.8122 8.53132 14.8322 8.50756L14.8627 8.47182L14.8879 8.44239C14.9396 8.38123 14.9706 8.3366 14.9882 8.29251L14.9887 8.29134C14.9915 8.28424 14.9941 8.27771 15.0002 8.27969ZM14.9728 8.74604L14.9497 8.73082C14.9494 8.71514 14.9574 8.6952 14.9724 8.67135C14.9915 8.64067 15.0182 8.60772 15.0691 8.54958L15.0756 8.54212C15.1696 8.43481 15.1982 8.39696 15.1975 8.37134L15.2071 8.36385C15.3246 8.40467 15.4344 8.46367 15.5769 8.55591L15.582 8.55928L15.582 8.55928L15.582 8.55929L15.582 8.55929L15.582 8.5593L15.5821 8.55932C15.6108 8.57828 15.7508 8.67069 15.7907 8.6952C15.8657 8.74131 15.9242 8.77022 15.9825 8.79483C15.9761 8.82032 15.9642 8.84819 15.9466 8.88069C15.9376 8.89722 15.9277 8.91412 15.9142 8.93616L15.9135 8.93731C15.8695 9.00908 15.8608 9.02337 15.8544 9.03863C15.8528 9.04242 15.8513 9.04627 15.8495 9.05108L15.8493 9.0517C15.8374 9.08321 15.8418 9.09894 15.8661 9.10529C15.8928 9.11142 15.9372 9.12395 16.0114 9.14587L16.0171 9.14755L16.0676 9.16252L16.0823 9.16686C16.0857 9.178 16.0945 9.18612 16.1092 9.19068L16.0636 9.17724L16.0131 9.16227L16.0075 9.16059C15.9336 9.13877 15.8893 9.12627 15.8628 9.12018C15.8283 9.11115 15.821 9.0852 15.8357 9.04608L15.8361 9.04508L15.8361 9.04508L15.8361 9.04506L15.8361 9.04505C15.8381 9.03993 15.8396 9.03584 15.8413 9.03182C15.8479 9.01614 15.8569 9.00146 15.9009 8.9296L15.902 8.92789C15.9153 8.90606 15.9251 8.88938 15.9339 8.87313C15.94 8.86188 15.9454 8.85123 15.9503 8.84152L15.9503 8.84151C15.9591 8.82409 15.9664 8.80968 15.9735 8.80026C15.9189 8.78455 15.8594 8.75513 15.7833 8.7084C15.743 8.68362 15.6016 8.59027 15.574 8.57202L15.5739 8.572L15.5739 8.57199L15.5693 8.56893C15.4312 8.47959 15.3243 8.42173 15.2113 8.38148C15.2063 8.4116 15.1753 8.45085 15.0863 8.55247L15.0798 8.55992C15.0295 8.61742 15.0031 8.65 14.9845 8.67974C14.9623 8.71529 14.9588 8.73672 14.9728 8.74604ZM18.0857 8.69862C18.0962 8.60607 17.9885 8.54155 17.7882 8.50011C17.628 8.46697 17.4132 8.45004 17.1854 8.44811L17.1835 8.46316L18.0767 8.70512L18.0857 8.69862ZM18.0718 8.68801L18.0803 8.69031L18.0712 8.69681C18.0716 8.69385 18.0718 8.69092 18.0718 8.68801ZM17.2459 8.46428C17.4502 8.46847 17.6405 8.48513 17.7854 8.51511C17.9713 8.55358 18.0728 8.6117 18.0718 8.68801L17.2459 8.46428ZM17.2459 8.46428C17.2259 8.46387 17.2056 8.46358 17.1853 8.4634L17.1872 8.44836L17.2459 8.46428ZM17.103 8.40194C17.1126 8.32388 17.1259 8.24789 17.143 8.17417L17.1266 8.17136L17.0865 8.39986L17.103 8.40194ZM17.1029 8.4023L17.0864 8.40022C17.0961 8.32168 17.1095 8.2452 17.1267 8.17099L17.1431 8.1738L17.1029 8.4023Z" fill="black"/>
<path fill-rule="evenodd" clip-rule="evenodd" d="M17.3998 7.63334C17.1691 8.16943 17.1125 8.79873 17.2816 9.17457L17.2725 9.18501L17.1647 9.14085C17.081 8.94574 17.0554 8.68729 17.0922 8.40857L17.0554 8.40064C17.0251 8.39427 17.0013 8.39013 16.9782 8.38761C16.8768 8.3766 16.8188 8.40191 16.8107 8.48176C16.8126 8.46056 16.8149 8.43902 16.8176 8.41709C16.8465 8.37634 16.9023 8.364 16.9797 8.3724C17.0034 8.37498 17.0275 8.37919 17.0582 8.38564C17.0666 8.38741 17.0929 8.39312 17.1009 8.40194C17.0702 8.68649 17.0954 8.94226 17.1739 9.13054L17.2611 9.1643C17.2635 9.16995 17.266 9.17555 17.2685 9.1811L17.2776 9.17066L17.2611 9.1643C17.0989 8.78214 17.1576 8.15897 17.3866 7.62704C17.6078 7.1128 17.6761 6.65736 17.6559 6.16248C17.6896 6.16309 17.7155 6.15412 17.7684 6.12804L17.7709 6.1268C17.7854 6.11964 17.7922 6.11637 17.8005 6.11259C18.0306 6.00771 18.2396 6.02256 18.3835 6.12611C18.4836 6.19808 18.5305 6.30249 18.5029 6.37353C18.4904 6.38159 18.4794 6.39038 18.4641 6.40331L18.4733 6.41519C18.487 6.40343 18.4968 6.3893 18.5029 6.37353C18.5227 6.36075 18.546 6.34981 18.5959 6.32713L18.6055 6.32263C18.686 6.28582 18.5744 6.04421 18.3719 5.94315C18.3719 5.94315 18.3718 5.94315 18.3718 5.94315C18.2802 5.89737 18.0959 5.8897 17.9645 5.91804L17.9575 5.9056C18.0544 5.78591 18.1226 5.74271 18.2621 5.72655C18.2639 5.77939 18.2512 5.84046 18.2299 5.89113L18.22 5.88988L18.2202 5.89033L18.2257 5.90076C18.2271 5.89767 18.2284 5.89452 18.2298 5.89134C18.2298 5.89127 18.2299 5.8912 18.2299 5.89113L18.2351 5.89179C18.2766 5.89678 18.3039 5.90125 18.3272 5.90995C18.3418 5.91539 18.3548 5.92247 18.3687 5.93237C18.3698 5.9304 18.3709 5.9284 18.372 5.92639C18.4066 5.86127 18.4247 5.77365 18.424 5.68054C18.4625 5.66965 18.5001 5.65826 18.554 5.64144C18.7253 5.58793 18.7547 5.57919 18.8276 5.56233C18.9316 5.5383 19.0229 5.52826 19.1133 5.53338C19.29 5.5434 19.4193 5.61023 19.4563 5.70066C19.4809 5.76091 19.4604 5.82013 19.4011 5.8653C19.3873 5.86993 19.3739 5.87445 19.3612 5.87871C19.3474 5.88333 19.3345 5.88766 19.323 5.89152C19.429 5.84884 19.4721 5.77798 19.4429 5.70669C19.4085 5.6226 19.2843 5.55839 19.1125 5.54865C19.0236 5.54361 18.9335 5.55351 18.8308 5.57726C18.7583 5.594 18.7291 5.60272 18.5581 5.6561C18.5042 5.67295 18.4664 5.68437 18.4331 5.68737C18.4391 5.7731 18.4218 5.86074 18.38 5.93029C18.5904 6.03644 18.7082 6.29232 18.6115 6.3366L18.6017 6.34116C18.5217 6.37755 18.5114 6.383 18.4732 6.41523L18.464 6.40335C18.5301 6.34672 18.4907 6.22174 18.3753 6.13873C18.2356 6.03824 18.032 6.02377 17.8063 6.12663C17.7981 6.13033 17.7915 6.13354 17.7771 6.14064L17.7746 6.14188C17.7197 6.16892 17.6923 6.17843 17.6631 6.16967C17.6908 6.6588 17.6221 7.1167 17.3998 7.63334ZM19.3271 5.90619C19.3561 5.89455 19.3809 5.88075 19.4011 5.8653C19.4757 5.84027 19.5604 5.81174 19.591 5.80059C19.7055 5.75888 19.7793 5.72226 19.836 5.67578C19.9799 5.55801 19.9203 5.30573 19.6605 5.25003C19.368 5.18722 19.175 5.21133 18.7835 5.32013L18.7565 5.32761C18.4076 5.42438 18.2221 5.44856 17.9621 5.39967C17.7832 5.36606 17.6535 5.36703 17.562 5.41221C17.4531 5.46599 17.403 5.58306 17.419 5.77926C17.4196 5.78735 17.42 5.79256 17.4205 5.79776C17.4212 5.80715 17.4219 5.81655 17.4238 5.84296L17.4241 5.84614C17.4254 5.86452 17.4266 5.87876 17.4283 5.89893C17.4283 6.04118 17.2587 6.1124 17.0968 6.0212C17.0884 6.01071 17.0799 5.99946 17.0711 5.98739L17.0612 5.99832C17.073 6.00685 17.0849 6.01447 17.0968 6.0212C17.1446 6.08086 17.1874 6.11566 17.232 6.13374C17.2738 6.1507 17.3057 6.15321 17.394 6.15147C17.4082 6.15119 17.4146 6.15108 17.4159 6.15837C17.4166 6.13658 17.4307 6.12706 17.4536 6.1282C17.4694 6.12899 17.4868 6.13363 17.5195 6.14444L17.5238 6.14587C17.5724 6.16203 17.5906 6.16617 17.6003 6.16119L17.6108 6.1678C17.6194 6.44529 17.5974 6.70777 17.5222 6.99008C17.4026 6.93447 17.3279 6.93172 17.3022 7.00374C17.2916 7.03882 17.2808 7.07301 17.2694 7.10696C17.2558 7.11705 17.2454 7.13204 17.2382 7.15229L17.2518 7.15764C17.2518 7.15764 17.2518 7.15763 17.2518 7.15763C17.2578 7.14075 17.2637 7.12388 17.2694 7.10696C17.312 7.07523 17.386 7.09186 17.4896 7.1457C17.4466 7.293 17.3911 7.44293 17.3223 7.59579C17.24 7.77822 17.1758 7.97691 17.127 8.17999C16.9699 8.13886 16.866 8.1415 16.851 8.21872C16.8366 8.28854 16.8254 8.35439 16.8176 8.41709C16.8061 8.43337 16.7988 8.45418 16.7962 8.48002C16.796 8.48177 16.7959 8.48352 16.7957 8.48527L16.8102 8.48657C16.8104 8.48495 16.8105 8.48334 16.8107 8.48176C16.8105 8.4834 16.8104 8.48503 16.8102 8.48667L16.7957 8.48536M17.5965 6.17822C17.5826 6.18031 17.5625 6.17479 17.5194 6.16044L17.5151 6.15902C17.4837 6.14864 17.467 6.14418 17.4529 6.14348C17.4372 6.1427 17.4308 6.14702 17.4232 6.16627L17.3943 6.16675C17.304 6.16854 17.271 6.16593 17.2267 6.148C17.1714 6.12559 17.1196 6.07944 17.0595 5.99665L17.0695 5.98573C17.2323 6.10361 17.4138 6.03786 17.4138 5.89964C17.4121 5.88009 17.4109 5.86577 17.4095 5.84732L17.4093 5.84414C17.4074 5.81774 17.4067 5.80837 17.4059 5.799C17.4055 5.79381 17.4051 5.78863 17.4045 5.78056C17.388 5.5785 17.4408 5.45518 17.5558 5.39838C17.6507 5.35148 17.783 5.35049 17.9646 5.38462C18.222 5.43302 18.4058 5.40908 18.7528 5.31283L18.7797 5.30535C19.1733 5.19599 19.3681 5.17165 19.6635 5.23505C19.9353 5.29334 19.9987 5.56197 19.845 5.68784C19.7867 5.73558 19.7117 5.77282 19.5958 5.81503C19.5593 5.82832 19.4467 5.86608 19.3653 5.89337C19.3515 5.89801 19.3386 5.90234 19.3271 5.90619C19.3126 5.91202 19.297 5.9173 19.2804 5.92198L19.2762 5.90733C19.2843 5.90453 19.3011 5.89887 19.323 5.89152C19.3087 5.89729 19.2932 5.90254 19.2766 5.90721L19.2807 5.92185C19.2888 5.91908 19.3054 5.91348 19.3271 5.90619M17.9822 5.89898C18.0541 5.88594 18.1382 5.88274 18.2145 5.88978C18.2362 5.84024 18.2496 5.77939 18.2561 5.73436C18.1347 5.75605 18.0699 5.79448 17.9822 5.89898Z" fill="black"/>
</g>
</svg>
