<svg width="28" height="20" viewBox="0 0 28 20" fill="none" xmlns="http://www.w3.org/2000/svg">
<rect x="0.25" y="0.25" width="27.5" height="19.5" rx="1.75" fill="white" stroke="#F5F5F5" stroke-width="0.5"/>
<mask id="mask0" mask-type="alpha" maskUnits="userSpaceOnUse" x="0" y="0" width="28" height="20">
<rect x="0.25" y="0.25" width="27.5" height="19.5" rx="1.75" fill="white" stroke="white" stroke-width="0.5"/>
</mask>
<g mask="url(#mask0)">
<path fill-rule="evenodd" clip-rule="evenodd" d="M14 14.6666C16.5774 14.6666 18.6667 12.5773 18.6667 9.99998C18.6667 7.42265 16.5774 5.33331 14 5.33331C11.4227 5.33331 9.33337 7.42265 9.33337 9.99998C9.33337 12.5773 11.4227 14.6666 14 14.6666Z" fill="#E01B41"/>
<mask id="mask1" mask-type="alpha" maskUnits="userSpaceOnUse" x="9" y="5" width="10" height="10">
<path fill-rule="evenodd" clip-rule="evenodd" d="M14 14.6666C16.5774 14.6666 18.6667 12.5773 18.6667 9.99998C18.6667 7.42265 16.5774 5.33331 14 5.33331C11.4227 5.33331 9.33337 7.42265 9.33337 9.99998C9.33337 12.5773 11.4227 14.6666 14 14.6666Z" fill="white"/>
</mask>
<g mask="url(#mask1)">
<path fill-rule="evenodd" clip-rule="evenodd" d="M9.33332 10.6666C10.6666 11.9166 12.6666 12.6666 14 10.6666C15.3333 8.66663 18 8.66663 18.6666 10.6666C19.3333 12.6666 18.6666 14.6666 18.6666 14.6666H9.33332C9.33332 14.6666 7.99998 9.41663 9.33332 10.6666Z" fill="#0E4B9C"/>
</g>
<path opacity="0.75" fill-rule="evenodd" clip-rule="evenodd" d="M6.17306 3.55665C6.2651 3.39722 6.46897 3.3426 6.6284 3.43464L7.20575 3.76798C7.36518 3.86003 7.4198 4.06389 7.32776 4.22332L5.66109 7.11007C5.56904 7.2695 5.36518 7.32413 5.20575 7.23208L4.6284 6.89875C4.46897 6.8067 4.41434 6.60284 4.50639 6.4434L6.17306 3.55665ZM20.7942 3.76798C20.6348 3.86003 20.5801 4.06389 20.6722 4.22332L22.3389 7.11007C22.4309 7.2695 22.6348 7.32413 22.7942 7.23208L23.3716 6.89875C23.531 6.8067 23.5856 6.60284 23.4936 6.4434L21.8269 3.55665C21.7348 3.39722 21.531 3.3426 21.3716 3.43464L20.7942 3.76798ZM19.0622 4.76798C18.9027 4.86003 18.8481 5.06389 18.9401 5.22332L20.6068 8.11007C20.6989 8.2695 20.9027 8.32413 21.0622 8.23208L21.6395 7.89875C21.7989 7.8067 21.8536 7.60284 21.7615 7.4434L20.0948 4.55665C20.0028 4.39722 19.7989 4.3426 19.6395 4.43464L19.0622 4.76798ZM4.50639 13.5567C4.41434 13.3972 4.46897 13.1934 4.6284 13.1013L5.20575 12.768C5.36518 12.6759 5.56904 12.7306 5.66109 12.89L7.32776 15.7767C7.4198 15.9362 7.36518 16.14 7.20575 16.2321L6.6284 16.5654C6.46897 16.6575 6.2651 16.6028 6.17306 16.4434L4.50639 13.5567ZM6.36045 12.1013C6.20102 12.1934 6.14639 12.3972 6.23844 12.5567L7.90511 15.4434C7.99715 15.6028 8.20102 15.6575 8.36045 15.5654L8.9378 15.2321C9.09723 15.14 9.15185 14.9362 9.05981 14.7767L7.39314 11.89C7.30109 11.7306 7.09723 11.6759 6.9378 11.768L6.36045 12.1013ZM20.6068 11.89C20.6989 11.7306 20.9027 11.6759 21.0622 11.768L21.6395 12.1013C21.7989 12.1934 21.8536 12.3972 21.7615 12.5567L20.0948 15.4434C20.0028 15.6028 19.7989 15.6575 19.6395 15.5654L19.0622 15.2321C18.9027 15.14 18.8481 14.9362 18.9401 14.7767L20.6068 11.89ZM22.7942 12.768C22.6348 12.6759 22.4309 12.7306 22.3389 12.89L20.6722 15.7767C20.5801 15.9362 20.6348 16.14 20.7942 16.2321L21.3716 16.5654C21.531 16.6575 21.7348 16.6028 21.8269 16.4434L23.4936 13.5567C23.5856 13.3972 23.531 13.1934 23.3716 13.1013L22.7942 12.768ZM8.36045 4.43464C8.20102 4.3426 7.99715 4.39722 7.90511 4.55665L6.23844 7.4434C6.14639 7.60284 6.20102 7.8067 6.36045 7.89875L6.9378 8.23208C7.09723 8.32413 7.30109 8.2695 7.39314 8.11007L9.05981 5.22332C9.15185 5.06389 9.09723 4.86003 8.9378 4.76798L8.36045 4.43464Z" fill="#262626"/>
</g>
</svg>
