<svg width="28" height="20" viewBox="0 0 28 20" fill="none" xmlns="http://www.w3.org/2000/svg">
<rect width="28" height="20" rx="2" fill="white"/>
<mask id="mask0" mask-type="alpha" maskUnits="userSpaceOnUse" x="0" y="0" width="28" height="20">
<rect width="28" height="20" rx="2" fill="white"/>
</mask>
<g mask="url(#mask0)">
<rect width="28" height="20" fill="#30C6E0"/>
<path fill-rule="evenodd" clip-rule="evenodd" d="M14 14C16.2091 14 18 12.2091 18 10C18 7.79086 16.2091 6 14 6C11.7909 6 10 7.79086 10 10C10 12.2091 11.7909 14 14 14Z" fill="#FFCD4B"/>
<path fill-rule="evenodd" clip-rule="evenodd" d="M12.3682 17.1495L14 14.7136L15.6318 17.1495L16.0452 14.2468L18.5723 15.7334L17.6853 12.9389L20.6071 13.1818L18.5955 11.0489L21.3334 10L18.5955 8.95112L20.6071 6.81818L17.6853 7.06111L18.5723 4.26657L16.0452 5.75318L15.6318 2.85052L14 5.28638L12.3682 2.85052L11.9549 5.75318L9.42776 4.26657L10.3148 7.06111L7.39292 6.81818L9.40459 8.95112L6.66669 10L9.40459 11.0489L7.39292 13.1818L10.3148 12.9389L9.42776 15.7334L11.9549 14.2468L12.3682 17.1495ZM18.6667 10C18.6667 12.5773 16.5773 14.6667 14 14.6667C11.4227 14.6667 9.33335 12.5773 9.33335 10C9.33335 7.42267 11.4227 5.33333 14 5.33333C16.5773 5.33333 18.6667 7.42267 18.6667 10Z" fill="#FFCD4B"/>
<path fill-rule="evenodd" clip-rule="evenodd" d="M1.33331 1.66665C1.33331 1.48255 1.48255 1.33331 1.66665 1.33331H2.33331C2.51741 1.33331 2.66665 1.48255 2.66665 1.66665V2.33331C2.66665 2.51741 2.51741 2.66665 2.33331 2.66665H1.66665C1.48255 2.66665 1.33331 2.51741 1.33331 2.33331V1.66665ZM1.33331 4.33331C1.33331 4.14922 1.48255 3.99998 1.66665 3.99998H2.33331C2.51741 3.99998 2.66665 4.14922 2.66665 4.33331V4.99998C2.66665 5.18407 2.51741 5.33331 2.33331 5.33331H1.66665C1.48255 5.33331 1.33331 5.18407 1.33331 4.99998V4.33331ZM1.66665 6.66665C1.48255 6.66665 1.33331 6.81589 1.33331 6.99998V7.66665C1.33331 7.85074 1.48255 7.99998 1.66665 7.99998H2.33331C2.51741 7.99998 2.66665 7.85074 2.66665 7.66665V6.99998C2.66665 6.81589 2.51741 6.66665 2.33331 6.66665H1.66665ZM1.33331 9.66665C1.33331 9.48255 1.48255 9.33331 1.66665 9.33331H2.33331C2.51741 9.33331 2.66665 9.48255 2.66665 9.66665V10.3333C2.66665 10.5174 2.51741 10.6666 2.33331 10.6666H1.66665C1.48255 10.6666 1.33331 10.5174 1.33331 10.3333V9.66665ZM1.66665 12C1.48255 12 1.33331 12.1492 1.33331 12.3333V13C1.33331 13.1841 1.48255 13.3333 1.66665 13.3333H2.33331C2.51741 13.3333 2.66665 13.1841 2.66665 13V12.3333C2.66665 12.1492 2.51741 12 2.33331 12H1.66665ZM1.33331 15C1.33331 14.8159 1.48255 14.6666 1.66665 14.6666H2.33331C2.51741 14.6666 2.66665 14.8159 2.66665 15V15.6666C2.66665 15.8507 2.51741 16 2.33331 16H1.66665C1.48255 16 1.33331 15.8507 1.33331 15.6666V15ZM1.66665 17.3333C1.48255 17.3333 1.33331 17.4826 1.33331 17.6666V18.3333C1.33331 18.5174 1.48255 18.6666 1.66665 18.6666H2.33331C2.51741 18.6666 2.66665 18.5174 2.66665 18.3333V17.6666C2.66665 17.4826 2.51741 17.3333 2.33331 17.3333H1.66665ZM2.66665 16.3333C2.66665 16.1492 2.81588 16 2.99998 16H3.66665C3.85074 16 3.99998 16.1492 3.99998 16.3333V17C3.99998 17.1841 3.85074 17.3333 3.66665 17.3333H2.99998C2.81589 17.3333 2.66665 17.1841 2.66665 17V16.3333ZM2.99998 13.3333C2.81588 13.3333 2.66665 13.4826 2.66665 13.6666V14.3333C2.66665 14.5174 2.81589 14.6666 2.99998 14.6666H3.66665C3.85074 14.6666 3.99998 14.5174 3.99998 14.3333V13.6666C3.99998 13.4826 3.85074 13.3333 3.66665 13.3333H2.99998ZM2.66665 11C2.66665 10.8159 2.81588 10.6666 2.99998 10.6666H3.66665C3.85074 10.6666 3.99998 10.8159 3.99998 11V11.6666C3.99998 11.8507 3.85074 12 3.66665 12H2.99998C2.81589 12 2.66665 11.8507 2.66665 11.6666V11ZM2.99998 7.99998C2.81588 7.99998 2.66665 8.14922 2.66665 8.33331V8.99998C2.66665 9.18407 2.81589 9.33331 2.99998 9.33331H3.66665C3.85074 9.33331 3.99998 9.18407 3.99998 8.99998V8.33331C3.99998 8.14922 3.85074 7.99998 3.66665 7.99998H2.99998ZM2.66665 5.66665C2.66665 5.48255 2.81588 5.33331 2.99998 5.33331H3.66665C3.85074 5.33331 3.99998 5.48255 3.99998 5.66665V6.33331C3.99998 6.51741 3.85074 6.66665 3.66665 6.66665H2.99998C2.81589 6.66665 2.66665 6.51741 2.66665 6.33331V5.66665ZM2.99998 2.66665C2.81588 2.66665 2.66665 2.81589 2.66665 2.99998V3.66665C2.66665 3.85074 2.81589 3.99998 2.99998 3.99998H3.66665C3.85074 3.99998 3.99998 3.85074 3.99998 3.66665V2.99998C3.99998 2.81588 3.85074 2.66665 3.66665 2.66665H2.99998Z" fill="#FFCD4B"/>
</g>
</svg>
