<svg width="28" height="20" viewBox="0 0 28 20" fill="none" xmlns="http://www.w3.org/2000/svg">
<rect x="0.25" y="0.25" width="27.5" height="19.5" rx="1.75" fill="white" stroke="#F5F5F5" stroke-width="0.5"/>
<mask id="mask0" mask-type="alpha" maskUnits="userSpaceOnUse" x="0" y="0" width="28" height="20">
<rect x="0.25" y="0.25" width="27.5" height="19.5" rx="1.75" fill="white" stroke="white" stroke-width="0.5"/>
</mask>
<g mask="url(#mask0)">
<path fill-rule="evenodd" clip-rule="evenodd" d="M0 13.3333H28V6.66666H0V13.3333Z" fill="#0C47B7"/>
<path fill-rule="evenodd" clip-rule="evenodd" d="M0 20H28V13.3333H0V20Z" fill="#E53B35"/>
<path d="M6.94965 3.33333C5.87499 3.33333 4.99243 4.1826 4.95113 5.25647L4.69188 11.9969C4.66841 12.6073 4.92509 13.1948 5.38882 13.5923L8.2645 16.0572C9.26314 16.9132 10.7368 16.9132 11.7354 16.0572L14.6111 13.5923C15.0748 13.1948 15.3315 12.6073 15.308 11.9969L15.0488 5.25647C15.0075 4.1826 14.1249 3.33333 13.0502 3.33333H6.94965Z" fill="#F73744" stroke="white" stroke-width="1.33333"/>
<mask id="mask1" mask-type="alpha" maskUnits="userSpaceOnUse" x="4" y="2" width="12" height="16">
<path d="M6.94965 3.33333C5.87499 3.33333 4.99243 4.1826 4.95113 5.25647L4.69188 11.9969C4.66841 12.6073 4.92509 13.1948 5.38882 13.5923L8.2645 16.0572C9.26314 16.9132 10.7368 16.9132 11.7354 16.0572L14.6111 13.5923C15.0748 13.1948 15.3315 12.6073 15.308 11.9969L15.0488 5.25647C15.0075 4.1826 14.1249 3.33333 13.0502 3.33333H6.94965Z" fill="white" stroke="white" stroke-width="1.33333"/>
</mask>
<g mask="url(#mask1)">
<path fill-rule="evenodd" clip-rule="evenodd" d="M9.33325 11C9.33325 10.8159 9.18401 10.6667 8.99992 10.6667H7.66659C7.48249 10.6667 7.33325 10.5174 7.33325 10.3333V9.66668C7.33325 9.48258 7.48249 9.33334 7.66659 9.33334H8.99992C9.18401 9.33334 9.33325 9.1841 9.33325 9.00001V8.33334C9.33325 8.14925 9.18401 8.00001 8.99992 8.00001H8.33325C8.14916 8.00001 7.99992 7.85077 7.99992 7.66668V7.00001C7.99992 6.81592 8.14916 6.66668 8.33325 6.66668H8.99992C9.18401 6.66668 9.33325 6.51744 9.33325 6.33334V5.66668C9.33325 5.48258 9.48249 5.33334 9.66659 5.33334H10.3333C10.5173 5.33334 10.6666 5.48258 10.6666 5.66668V6.33334C10.6666 6.51744 10.8158 6.66668 10.9999 6.66668H11.6666C11.8507 6.66668 11.9999 6.81592 11.9999 7.00001V7.66668C11.9999 7.85077 11.8507 8.00001 11.6666 8.00001H10.9999C10.8158 8.00001 10.6666 8.14925 10.6666 8.33334V9.00001C10.6666 9.1841 10.8158 9.33334 10.9999 9.33334H12.3333C12.5173 9.33334 12.6666 9.48258 12.6666 9.66668V10.3333C12.6666 10.5174 12.5173 10.6667 12.3333 10.6667H10.9999C10.8158 10.6667 10.6666 10.8159 10.6666 11V13C10.6666 13.1841 10.5173 13.3333 10.3333 13.3333H9.66659C9.48249 13.3333 9.33325 13.1841 9.33325 13V11Z" fill="white"/>
<path fill-rule="evenodd" clip-rule="evenodd" d="M11.2035 13.4254C10.9889 12.9767 10.5307 12.6667 10 12.6667C9.46934 12.6667 9.01109 12.9767 8.79647 13.4254C7.17545 13.6808 6 14.4384 6 15.3333C6 16.4379 7.79086 17.3333 10 17.3333C12.2091 17.3333 14 16.4379 14 15.3333C14 14.4384 12.8246 13.6808 11.2035 13.4254Z" fill="#1251A1"/>
</g>
</g>
</svg>
