<svg width="28" height="20" viewBox="0 0 28 20" fill="none" xmlns="http://www.w3.org/2000/svg">
<rect width="28" height="20" rx="2" fill="#009F60"/>
<mask id="mask0" mask-type="alpha" maskUnits="userSpaceOnUse" x="0" y="0" width="28" height="20">
<rect width="28" height="20" rx="2" fill="white"/>
</mask>
<g mask="url(#mask0)">
<rect x="24" y="10.6667" width="4" height="9.33333" fill="#EA8B42"/>
<path fill-rule="evenodd" clip-rule="evenodd" d="M20 20H24V10.6667H20V20Z" fill="#1A1919"/>
<path fill-rule="evenodd" clip-rule="evenodd" d="M16 20H20V10.6667H16V20Z" fill="#DB3C36"/>
<path fill-rule="evenodd" clip-rule="evenodd" d="M21.0142 3.48403C20.9223 3.48662 20.8547 3.45479 20.8306 3.40128C20.9804 3.31337 21.0817 3.33298 21.2074 3.44498C21.2315 3.35741 21.2074 3.25986 21.1542 3.20137C21.1011 3.14287 21.0575 3.14287 20.9852 3.13788C20.9127 3.13307 20.8402 3.11363 20.7918 3.11363C20.721 2.95758 20.5436 3.02365 20.3732 3.08765C20.0962 3.19156 19.8473 3.38029 19.7355 3.56868C19.6844 3.65487 19.6782 3.68877 19.6469 3.73763C19.6727 3.73436 19.671 3.73436 19.6871 3.72455C19.6678 3.93909 19.6421 4.13728 19.6806 4.26408C19.6325 4.44937 19.671 4.56636 19.729 4.62485C19.7871 4.68335 19.8111 4.70778 19.8209 4.77608C19.8305 4.84421 19.8594 4.90752 19.9078 4.94657C19.9561 4.98563 19.9851 5.04412 19.9899 5.07836C19.9947 5.11242 20.1442 5.25935 20.2073 5.29771C20.2314 5.31216 20.2362 5.34158 20.2654 5.38047C20.2025 5.75105 20.4538 6.12163 20.3957 6.48722C20.4392 6.49203 20.4971 6.48722 20.5553 6.47259C20.6034 6.78451 20.6324 6.93573 20.3619 7.02829C20.0914 7.12102 19.9434 7.21221 20.0189 7.31595C20.072 7.38907 20.1821 7.32541 20.2508 7.26227C20.3039 7.21358 20.3667 7.16971 20.415 7.15509C20.4634 7.14046 20.4731 7.15509 20.4488 7.2184C20.4246 7.28188 20.2943 7.41831 20.2894 7.48662C20.2846 7.55492 20.3425 7.6036 20.4344 7.54993C20.5261 7.49625 20.6069 7.35586 20.6276 7.27208C20.642 7.21358 20.6663 7.17453 20.6614 7.27208C20.6566 7.36963 20.5986 7.54511 20.7291 7.57436C20.8595 7.6036 20.8983 7.44756 20.8547 7.30614C20.8112 7.1649 20.7968 7.08679 20.816 7.0381C20.8354 6.98924 20.8547 6.96016 20.9029 6.97462C20.9513 6.98924 21.0479 6.9698 21.0431 6.89186C21.0382 6.81393 20.9706 6.75044 20.8933 6.79431C20.816 6.83819 20.7581 6.83165 20.7918 6.73582C20.816 6.66752 20.8595 6.58459 20.8643 6.53109C20.9175 6.60902 21.217 6.61883 21.3378 6.54571C21.3668 6.69195 21.4441 6.82356 21.2751 6.96016C21.1059 7.09659 20.9706 7.22821 20.9754 7.32576C20.9804 7.4233 21.019 7.48163 21.1059 7.43294C21.1928 7.38425 21.2459 7.31595 21.2653 7.25264C21.2847 7.18915 21.3234 7.18915 21.3041 7.26726C21.2847 7.3452 21.2509 7.45737 21.2653 7.52567C21.2799 7.5938 21.3862 7.59879 21.4295 7.5353C21.4731 7.47199 21.4633 7.38907 21.4537 7.30614C21.4441 7.22322 21.4587 7.13565 21.4779 7.10141C21.4973 7.06735 21.5358 7.01849 21.5746 7.11122C21.6133 7.20378 21.6325 7.2769 21.7098 7.30133C21.7871 7.32576 21.8451 7.29152 21.8307 7.19896C21.8161 7.1064 21.7146 7.00386 21.6133 6.92593C21.5118 6.84799 21.5456 6.80894 21.5504 6.73582C21.5552 6.6627 21.5408 6.53109 21.5358 6.47259C21.6277 6.54089 21.7292 6.53109 21.7774 6.53109C21.8257 6.53109 21.9051 6.51612 21.8257 6.44335C21.6663 6.29711 21.7194 6.2092 21.6083 6.10201C21.4973 5.99483 21.3958 5.82898 21.362 5.68773C21.3281 5.54631 21.2537 5.28791 21.1059 5.15629C21.0238 5.08317 20.9996 4.88326 21.019 4.6541C21.0382 4.42494 21.0431 4.17152 20.8354 4.05453C20.6276 3.93754 20.6324 3.83999 20.7001 3.73763C20.7677 3.63526 20.8546 3.53513 20.9658 3.52791C20.9909 3.52636 21.0486 3.52154 21.0721 3.50434C21.0617 3.49625 21.0447 3.48335 21.0142 3.48403Z" fill="#EA8B42"/>
<path fill-rule="evenodd" clip-rule="evenodd" d="M19.663 4.01066C19.6578 4.10976 19.6602 4.19698 19.6806 4.26408C19.6325 4.44937 19.671 4.56636 19.729 4.62486C19.7871 4.68335 19.8111 4.70778 19.8209 4.77608C19.8305 4.84421 19.8594 4.90752 19.9078 4.94658C19.9561 4.98563 19.9851 5.04412 19.9899 5.07836C19.9947 5.11243 20.1442 5.25935 20.2073 5.29772C20.2314 5.31217 20.2362 5.34159 20.2654 5.38047C20.2391 5.53445 20.2667 5.68843 20.3045 5.84206C19.963 6.128 19.6259 5.99311 19.7677 5.70064C19.4842 5.92808 18.9947 5.92172 19.1043 5.70064C18.6598 5.85668 18.5245 5.72662 18.5825 5.58365C18.2089 5.73316 18.0155 5.59019 18.0671 5.4861C17.7579 5.57058 17.5582 5.51862 17.5259 5.46666C17.4939 5.4147 17.571 5.29772 17.642 5.23922C17.5002 5.29118 17.365 5.29118 17.2361 5.27174C17.1073 5.25212 17.1395 5.21307 17.1653 5.15458C17.1911 5.09608 17.2249 5.00352 17.3279 4.91251C17.0816 4.9612 16.7723 4.99544 16.555 4.92215C16.514 4.90838 16.4439 4.8929 16.4873 4.8492C16.5308 4.80533 16.6613 4.69797 16.8207 4.62967C16.4583 4.68335 15.7722 4.7224 15.579 4.50305C15.7674 4.54193 16.009 4.464 16.1636 4.40068C15.5549 4.33238 14.7239 3.91311 14.7142 3.50365C14.8882 3.78632 15.1878 3.88387 15.4873 3.97161C15.0814 3.73264 14.9123 3.44498 14.8979 3.25488C15.1297 3.47922 15.4823 3.73264 15.8303 3.79131C15.5838 3.65969 15.265 3.27449 15.1781 3.00627C15.3569 3.16713 15.8158 3.42554 16.1298 3.50847C15.9125 3.3378 15.5598 2.93316 15.579 2.70898C15.6611 2.79191 15.8641 2.94778 16.2795 3.19157C16.695 3.43535 16.9205 3.41746 17.2635 3.49058C17.2007 3.4061 17.1443 3.29393 17.1395 3.26468C17.241 3.27931 17.3375 3.31836 17.6274 3.49866C17.9173 3.67913 18.5507 3.73436 18.9126 3.89367C19.1782 4.01066 19.5567 3.93754 19.663 4.01066Z" fill="#EA8B42"/>
<path fill-rule="evenodd" clip-rule="evenodd" d="M21.8496 6.51441C21.8655 6.50167 21.8655 6.47965 21.8257 6.44335C21.6663 6.29711 21.7195 6.2092 21.6084 6.10202C21.4973 5.99484 21.3958 5.82899 21.362 5.68774C21.3281 5.54632 21.2537 5.28791 21.1059 5.1563C21.0238 5.08318 20.9996 4.88327 21.019 4.6541C21.0355 4.45797 21.0415 4.24413 20.9125 4.1132C21.1541 4.0449 21.3766 4.0301 21.4537 4.10804C21.8547 4.00567 22.2027 3.97471 22.544 3.95217C22.9369 3.92602 23.6777 3.75707 24.206 3.39957C24.1738 3.52963 23.9935 3.72456 23.8323 3.8221C24.367 3.69204 25.0112 3.45152 25.5588 3.04206C25.5523 3.32817 25.3205 3.54253 25.1851 3.6597C25.5588 3.45152 26.1061 3.19157 26.293 2.86658C26.3751 3.19965 25.8164 3.63527 25.5135 3.87578C25.8228 3.72628 26.2222 3.58813 26.3768 3.36705C26.3736 3.63681 26.0225 3.97161 25.6875 4.16653C26.029 4.03664 26.4091 3.90004 26.628 3.69858C26.6537 3.97006 25.6069 4.59406 25.0884 4.76456C25.5394 4.6541 26.1255 4.5046 26.3832 4.34856C26.3703 4.40378 26.2652 4.4812 26.1888 4.53763C25.8737 4.77058 25.3904 4.89565 25.0949 4.95311C25.1336 5.1157 25.082 5.20671 24.9017 5.21961C24.7213 5.23268 24.2849 5.16284 24.066 5.05221C24.0337 5.07165 23.995 5.07836 23.9515 5.08318C24.164 5.24404 24.2365 5.36103 24.193 5.42933C24.1496 5.49763 23.9974 5.48524 23.8815 5.46099C23.9732 5.71939 23.6664 5.70236 23.4104 5.55595C23.5119 5.68774 23.5265 5.79974 23.3863 5.82899C23.2462 5.85823 23.1349 5.8486 22.9997 5.76068C22.9901 5.85823 22.8967 5.92327 22.7727 5.89075C23.1979 6.14916 23.1737 6.24344 23.1012 6.34081C23.0288 6.43836 22.7751 6.41892 22.6399 6.33118C22.5819 6.53109 22.3508 6.53178 22.1784 6.37264C22.1768 6.4523 22.0123 6.6104 21.8496 6.51441Z" fill="#EA8B42"/>
<path fill-rule="evenodd" clip-rule="evenodd" d="M19.8773 7.49471C19.8843 7.43312 19.8901 7.36155 19.9416 7.31596C19.9932 7.27037 20.0254 7.23149 20.0705 7.2769C20.1156 7.3225 20.0866 7.36482 20.0254 7.38426C19.9642 7.4037 19.9224 7.45893 19.9126 7.49471C19.903 7.5305 19.8708 7.54994 19.8773 7.49471Z" fill="black"/>
<path fill-rule="evenodd" clip-rule="evenodd" d="M20.2282 7.79372C20.1963 7.69152 20.2123 7.55974 20.2476 7.52069C20.2831 7.48163 20.3281 7.45565 20.37 7.49471C20.4118 7.53376 20.4279 7.58899 20.3506 7.6215C20.2822 7.65023 20.2765 7.72215 20.2735 7.77428C20.2702 7.82623 20.2476 7.85548 20.2282 7.79372Z" fill="black"/>
<path fill-rule="evenodd" clip-rule="evenodd" d="M20.6792 7.53049C20.6543 7.5723 20.6855 7.74176 20.7694 7.78391C20.8287 7.81385 20.8563 7.8068 20.8208 7.7514C20.7855 7.69617 20.7983 7.64422 20.8177 7.61497C20.8369 7.58572 20.8338 7.53376 20.7918 7.50778C20.75 7.48163 20.6984 7.49798 20.6792 7.53049Z" fill="black"/>
<path fill-rule="evenodd" clip-rule="evenodd" d="M21.0431 7.37771C20.99 7.33746 20.9401 7.3858 20.9207 7.41986C20.882 7.48817 20.9111 7.58571 20.9723 7.64094C21.0335 7.69617 21.0238 7.6215 21.0044 7.58898C20.9852 7.55647 20.9819 7.49143 21.0238 7.4849C21.0656 7.47853 21.0947 7.4166 21.0431 7.37771Z" fill="black"/>
<path fill-rule="evenodd" clip-rule="evenodd" d="M21.3459 7.48817C21.2941 7.47286 21.2428 7.52723 21.2492 7.59226C21.254 7.64078 21.259 7.70271 21.3071 7.73523C21.3395 7.7569 21.362 7.77101 21.3459 7.71252C21.3298 7.65402 21.3556 7.60516 21.3844 7.58899C21.4134 7.57282 21.4006 7.50452 21.3459 7.48817Z" fill="black"/>
<path fill-rule="evenodd" clip-rule="evenodd" d="M21.7743 7.21186C21.7367 7.23836 21.7388 7.29978 21.7743 7.32249C21.8096 7.3452 21.8612 7.37771 21.8516 7.43294C21.8418 7.48816 21.8708 7.50778 21.8967 7.44601C21.9224 7.38425 21.9256 7.29324 21.8967 7.25092C21.8675 7.20859 21.8063 7.18915 21.7743 7.21186Z" fill="black"/>
<path fill-rule="evenodd" clip-rule="evenodd" d="M20.8404 3.39685C20.8628 3.44645 20.927 3.47573 21.0139 3.47329L21.014 3.47329C21.0416 3.47266 21.0583 3.48007 21.0785 3.51302C21.0572 3.52858 21.0172 3.5355 20.9665 3.53864C20.8742 3.54463 20.7936 3.61551 20.7091 3.74358C20.633 3.85861 20.6596 3.94322 20.8406 4.04515C21.0205 4.14645 21.0575 4.3229 21.0297 4.65501C21.0093 4.89632 21.0387 5.08204 21.113 5.14825C21.2361 5.25785 21.3153 5.44723 21.3724 5.68523C21.405 5.82155 21.5037 5.98611 21.6158 6.09426C21.6421 6.11968 21.661 6.14531 21.676 6.17455C21.6847 6.19138 21.691 6.20656 21.7013 6.23381C21.7366 6.32788 21.7604 6.36889 21.833 6.43541C21.8732 6.47228 21.881 6.50294 21.8562 6.5229C21.8398 6.53607 21.8102 6.54184 21.7774 6.54184L21.7596 6.54209C21.6816 6.54353 21.6314 6.53712 21.5736 6.50835C21.5651 6.5041 21.5567 6.49943 21.5486 6.49431L21.5535 6.54854C21.5556 6.57269 21.5573 6.59412 21.5587 6.6145C21.5621 6.66567 21.5631 6.70651 21.5611 6.73653C21.5604 6.7479 21.5591 6.7578 21.5567 6.77341C21.5522 6.80223 21.5513 6.81012 21.5522 6.82266C21.5543 6.85339 21.5724 6.88098 21.6199 6.9174C21.744 7.01291 21.8278 7.11159 21.8413 7.1973C21.8563 7.29362 21.7959 7.33978 21.7066 7.31158C21.652 7.29433 21.6239 7.25858 21.5915 7.1811C21.5897 7.17682 21.585 7.16528 21.58 7.15283C21.574 7.13812 21.5675 7.12213 21.5647 7.11538C21.5489 7.07758 21.5346 7.06545 21.522 7.0691C21.5111 7.07224 21.499 7.08605 21.4873 7.10669C21.4674 7.14215 21.4557 7.23002 21.4644 7.3049L21.4645 7.3057C21.4791 7.43235 21.4766 7.48584 21.4384 7.54139C21.3899 7.61232 21.2715 7.60592 21.2549 7.5279C21.2472 7.49176 21.2515 7.44401 21.2651 7.38064C21.2689 7.3632 21.2732 7.34512 21.2788 7.32291L21.2937 7.26467C21.3011 7.23461 21.2991 7.21777 21.2973 7.21742C21.2943 7.21685 21.2832 7.23098 21.2756 7.2558C21.2539 7.32666 21.1953 7.39517 21.1111 7.44233C21.0223 7.49208 20.9706 7.44147 20.9648 7.32629C20.9602 7.23452 21.0619 7.11827 21.2684 6.95179C21.3085 6.9194 21.3354 6.88649 21.3514 6.85203C21.3804 6.78963 21.3762 6.74172 21.3443 6.61931C21.3378 6.59412 21.3337 6.57769 21.3303 6.56218C21.2083 6.6247 20.9529 6.61935 20.8717 6.55416C20.8661 6.57982 20.8542 6.61115 20.8302 6.66844L20.8301 6.66873C20.815 6.7047 20.8086 6.72075 20.802 6.73941C20.7876 6.78014 20.7906 6.80165 20.805 6.8075C20.8205 6.81383 20.851 6.80599 20.8881 6.78496C20.9679 6.73966 21.048 6.79898 21.0539 6.8912C21.0586 6.96755 20.9695 7.00598 20.8999 6.98492C20.8637 6.97408 20.8473 6.98841 20.826 7.04206C20.8089 7.08535 20.8198 7.15642 20.865 7.30297C20.9154 7.46653 20.8581 7.6143 20.7268 7.58485C20.6464 7.56684 20.6254 7.5031 20.6366 7.39158C20.638 7.37777 20.6397 7.36456 20.6425 7.34394C20.6486 7.29886 20.6499 7.28859 20.6507 7.27153C20.6515 7.25583 20.6515 7.24344 20.6509 7.23449C20.6468 7.24411 20.642 7.25855 20.638 7.27467C20.6132 7.37484 20.5252 7.50926 20.4398 7.55922C20.3481 7.61278 20.2727 7.57117 20.2787 7.48584C20.281 7.45445 20.3034 7.41441 20.3495 7.34964L20.3623 7.33182C20.4207 7.25102 20.4304 7.23679 20.4388 7.21453C20.4601 7.15927 20.4569 7.15365 20.4181 7.16539C20.3746 7.17857 20.3143 7.21865 20.2581 7.27021C20.1626 7.35791 20.0614 7.39264 20.0102 7.32229C19.9697 7.26661 19.9865 7.21168 20.0541 7.15947C20.1137 7.11353 20.214 7.06765 20.3585 7.01812C20.5874 6.93978 20.605 6.86439 20.5579 6.48303C20.4997 6.49767 20.4403 6.50297 20.3851 6.48553C20.4088 6.3364 20.3902 6.21654 20.3195 5.94268C20.2471 5.66253 20.2281 5.53633 20.2568 5.38693C20.2493 5.37691 20.243 5.36707 20.2365 5.35566L20.2226 5.33071C20.2153 5.31835 20.2096 5.31161 20.2017 5.30691C20.1331 5.26516 19.9845 5.11683 19.9793 5.07986C19.9741 5.04254 19.9424 4.98837 19.9011 4.95495C19.8524 4.91566 19.8207 4.85164 19.8103 4.77761C19.802 4.71981 19.7898 4.70125 19.7214 4.63244C19.6499 4.56028 19.6263 4.4305 19.6704 4.26722C19.6406 4.16932 19.6434 4.07505 19.6712 3.7809L19.6746 3.74355C19.6715 3.74466 19.6681 3.74545 19.6636 3.7462L19.6482 3.7483L19.6379 3.7318C19.6443 3.72186 19.6498 3.71216 19.6554 3.70153C19.6577 3.69699 19.6588 3.6947 19.66 3.6924C19.6611 3.69007 19.6623 3.68772 19.6645 3.68298C19.6626 3.68701 19.6818 3.64609 19.6884 3.63283C19.6994 3.61048 19.7114 3.58835 19.7263 3.56318C19.8398 3.37187 20.0912 3.18195 20.3695 3.07758C20.6331 2.97855 20.7391 2.97142 20.7919 3.10288C20.8151 3.10288 20.8269 3.1045 20.8955 3.11568C20.9347 3.12207 20.9598 3.12542 20.986 3.12716L21.0025 3.12827C21.0643 3.13245 21.0901 3.13797 21.1215 3.15847C21.1352 3.16747 21.1486 3.17914 21.1622 3.19413C21.2192 3.2569 21.2423 3.35882 21.2177 3.44785L21.2003 3.45302C21.0739 3.34038 20.9774 3.3276 20.8404 3.39685ZM21.0656 3.51286C21.0488 3.49983 21.0363 3.4943 21.0144 3.49479L21.0145 3.49479C20.9198 3.49745 20.8474 3.46441 20.8252 3.392C20.9698 3.30717 21.0741 3.31747 21.2011 3.42525C21.1999 3.43092 21.1986 3.43654 21.1971 3.44211L21.2145 3.43694C21.21 3.43293 21.2055 3.42903 21.2011 3.42525C21.2167 3.34749 21.1948 3.26197 21.1463 3.20862C21.1339 3.19492 21.1219 3.18444 21.1097 3.17648C21.0824 3.15859 21.0594 3.15367 21.001 3.14973L20.9845 3.14862C20.9575 3.14682 20.9319 3.1434 20.892 3.13691C20.8796 3.13488 20.8691 3.13317 20.86 3.1317C20.8201 3.12524 20.8076 3.12321 20.7821 3.11809C20.7268 2.99628 20.6297 3.00281 20.377 3.09772C20.103 3.20049 19.8555 3.38745 19.7447 3.57418C19.7301 3.59887 19.7184 3.62053 19.7075 3.6424C19.7011 3.65542 19.682 3.6961 19.6839 3.69227C19.6815 3.69709 19.6804 3.6995 19.6792 3.7019C19.678 3.7043 19.6768 3.70668 19.6744 3.71146C19.6723 3.71542 19.6702 3.71926 19.6681 3.72304C19.6662 3.7238 19.6639 3.72436 19.6601 3.72497L19.6455 3.72696L19.6559 3.74345C19.6603 3.73665 19.6643 3.72995 19.6681 3.72304C19.6685 3.72289 19.6689 3.72273 19.6693 3.72256C19.6715 3.72156 19.6734 3.7204 19.6816 3.71536L19.6978 3.72552L19.6925 3.78293C19.6651 4.07337 19.6623 4.16701 19.691 4.2668C19.6488 4.42911 19.671 4.55106 19.7366 4.61726C19.8079 4.68907 19.8224 4.71101 19.8315 4.77458C19.8412 4.84357 19.8705 4.90263 19.9145 4.9382C19.96 4.97498 19.9945 5.03403 20.0005 5.07685C20.0045 5.10531 20.1494 5.24992 20.2128 5.28848C20.2242 5.29534 20.2322 5.30462 20.241 5.31982C20.2425 5.32226 20.2462 5.32895 20.2495 5.33493C20.2519 5.3393 20.2541 5.3433 20.2551 5.34496C20.2567 5.34777 20.2583 5.35048 20.2599 5.35326C20.2645 5.36103 20.2694 5.36937 20.276 5.38227C20.2499 5.5359 20.2686 5.66009 20.3402 5.93728C20.4117 6.21405 20.4306 6.33583 20.3969 6.47653C20.4365 6.48092 20.4879 6.47696 20.5497 6.47219C20.555 6.47178 20.5604 6.47137 20.5659 6.47095C20.6276 6.87037 20.6078 6.95554 20.3654 7.03847C20.2229 7.0873 20.1244 7.13237 20.0672 7.17652C20.0078 7.22233 19.9949 7.26474 20.0275 7.30962C20.0676 7.36477 20.1566 7.33426 20.2436 7.25433C20.302 7.20079 20.3647 7.15909 20.412 7.1448C20.4712 7.12687 20.4856 7.15261 20.4588 7.22224C20.4493 7.24721 20.4401 7.26079 20.3796 7.34445L20.3669 7.36214C20.3234 7.42326 20.302 7.46165 20.3001 7.48737C20.2954 7.55476 20.3517 7.58583 20.429 7.54064C20.5089 7.49388 20.5937 7.3644 20.6172 7.2695C20.6253 7.23651 20.6355 7.21154 20.6458 7.20463C20.6584 7.19615 20.6678 7.20556 20.6708 7.22061C20.6729 7.23131 20.6733 7.24849 20.6721 7.27261C20.6712 7.29056 20.67 7.30098 20.6637 7.34685C20.6609 7.36724 20.6593 7.38024 20.6579 7.39374C20.6477 7.49569 20.6653 7.54903 20.7314 7.56387C20.841 7.58844 20.8909 7.45984 20.8445 7.30932C20.7978 7.15781 20.7865 7.08383 20.8061 7.03413C20.8309 6.97143 20.8562 6.94939 20.906 6.96432C20.9634 6.98168 21.036 6.95036 21.0325 6.89255C21.0275 6.81477 20.9631 6.76707 20.8986 6.80368C20.8563 6.82767 20.8203 6.83695 20.7969 6.82742C20.7688 6.81596 20.7641 6.7824 20.7818 6.73222C20.7885 6.71304 20.7951 6.69676 20.8103 6.6604L20.8105 6.66011C20.8406 6.58814 20.8512 6.55825 20.8537 6.53013L20.8732 6.52502C20.9227 6.59758 21.216 6.60685 21.3323 6.53651L21.3484 6.54362C21.3523 6.56362 21.3566 6.58128 21.3651 6.61388C21.3982 6.74111 21.4027 6.79252 21.3708 6.8611C21.3534 6.89872 21.3244 6.93418 21.2818 6.96855C21.0816 7.13001 20.9821 7.24369 20.9862 7.32521C20.9913 7.42678 21.029 7.46369 21.1007 7.42355C21.1802 7.37899 21.2351 7.31482 21.2551 7.24949C21.2656 7.21511 21.2831 7.19286 21.3012 7.19629C21.3213 7.20007 21.3247 7.22851 21.3145 7.26987L21.2996 7.32821C21.294 7.35019 21.2897 7.36803 21.2861 7.38517C21.273 7.44577 21.269 7.49108 21.2758 7.52342C21.2881 7.58091 21.382 7.58599 21.4208 7.5292C21.4549 7.47959 21.4572 7.42949 21.4432 7.30818L21.4431 7.30739C21.434 7.22836 21.4462 7.13607 21.4686 7.09608C21.483 7.07074 21.498 7.05364 21.516 7.04844C21.542 7.04095 21.565 7.06047 21.5845 7.10706C21.5874 7.11396 21.5939 7.13019 21.5999 7.14499C21.6049 7.1573 21.6095 7.16863 21.6113 7.17278C21.6414 7.24497 21.666 7.2762 21.7131 7.29107C21.7878 7.31467 21.8325 7.28046 21.8201 7.20064C21.8078 7.12208 21.7269 7.02683 21.6068 6.93447C21.555 6.89463 21.5334 6.86187 21.5308 6.82414C21.5298 6.80934 21.5307 6.80069 21.5355 6.77007C21.5378 6.75506 21.539 6.74569 21.5397 6.73512C21.5416 6.70627 21.5406 6.66623 21.5373 6.61594C21.5359 6.59572 21.5342 6.57443 21.5321 6.55042L21.5252 6.47351L21.5422 6.46396C21.5553 6.47368 21.569 6.48202 21.5831 6.48909C21.637 6.51593 21.6844 6.52196 21.7592 6.52058L21.7774 6.52034C21.8057 6.52034 21.8313 6.51533 21.8428 6.50612C21.8545 6.49668 21.8504 6.48051 21.8185 6.45129C21.7431 6.38207 21.7176 6.33835 21.6812 6.2414C21.6712 6.21488 21.6652 6.20032 21.657 6.18443C21.643 6.15724 21.6256 6.13352 21.6009 6.10977C21.486 5.99887 21.3852 5.83073 21.3516 5.69025C21.2955 5.45637 21.2175 5.27007 21.0988 5.16434C21.0176 5.09205 20.9874 4.90093 21.0083 4.6532C21.0355 4.32902 21 4.15954 20.8302 4.06391C20.6388 3.95616 20.6078 3.85775 20.6912 3.73169C20.7791 3.59848 20.8642 3.52374 20.9652 3.51718C20.9797 3.51628 20.9935 3.515 21.006 3.51384C21.0331 3.51133 21.0545 3.50935 21.0656 3.51286Z" fill="black"/>
<path fill-rule="evenodd" clip-rule="evenodd" d="M19.402 3.95981C19.5672 3.96564 19.6273 3.97305 19.6691 4.00177L19.6737 4.0112C19.668 4.1215 19.6727 4.20088 19.691 4.26678C19.6488 4.4291 19.671 4.55104 19.7366 4.61724C19.8079 4.68905 19.8224 4.71099 19.8315 4.77456C19.8412 4.84355 19.8705 4.90261 19.9145 4.93818C19.96 4.97496 19.9945 5.03401 20.0005 5.07684C20.0045 5.1053 20.1494 5.2499 20.2128 5.28846C20.2243 5.29532 20.2322 5.3046 20.2411 5.3198C20.2425 5.32225 20.2462 5.32893 20.2495 5.33491C20.2519 5.33928 20.2541 5.34328 20.2551 5.34494C20.2567 5.34775 20.2583 5.35045 20.2599 5.35323C20.2645 5.361 20.2694 5.36935 20.276 5.38226C20.2534 5.51486 20.2677 5.64734 20.3114 5.8503C20.1497 5.98563 19.9751 6.03751 19.8517 5.99849C19.7398 5.96312 19.6958 5.86076 19.7423 5.73323C19.6107 5.82616 19.436 5.88038 19.2886 5.87957C19.1368 5.87873 19.0511 5.81805 19.0852 5.71856C18.7184 5.8417 18.5144 5.77196 18.5647 5.60204C18.2611 5.71524 18.0097 5.63672 18.0494 5.50191C17.7888 5.56876 17.5621 5.54515 17.5169 5.4723C17.4887 5.42669 17.5325 5.33454 17.599 5.26471C17.4838 5.29852 17.3665 5.30225 17.2345 5.28235C17.1723 5.27288 17.1415 5.25827 17.1333 5.23337C17.1269 5.21438 17.1289 5.20863 17.1525 5.15682L17.1555 5.15019C17.1554 5.15037 17.171 5.11448 17.1763 5.10276C17.1857 5.08223 17.1949 5.06397 17.2053 5.04579C17.229 5.00436 17.2575 4.96622 17.2936 4.93005C16.9922 4.98645 16.7351 4.9942 16.5516 4.93232L16.5241 4.92346C16.4985 4.91496 16.4827 4.90754 16.4727 4.89706C16.4576 4.88129 16.4599 4.86155 16.4797 4.84159C16.5383 4.78254 16.6419 4.70664 16.7522 4.65011C16.2291 4.71904 15.7285 4.68897 15.571 4.51015L15.5812 4.4925C15.728 4.52279 15.9168 4.48529 16.1207 4.40622C15.4528 4.31704 14.7125 3.88208 14.7035 3.50389L14.7233 3.49798C14.8588 3.71806 15.0396 3.82279 15.4121 3.93775C15.0896 3.72921 14.9035 3.47012 14.8873 3.25567L14.9054 3.24712C15.1688 3.50207 15.4826 3.70114 15.7707 3.76831C15.532 3.61307 15.2496 3.26166 15.1679 3.00958L15.1852 2.99825C15.3673 3.16201 15.7895 3.39333 16.0823 3.48361C15.8158 3.25975 15.5521 2.89802 15.5684 2.70804L15.5867 2.70139C15.6885 2.80421 15.9222 2.96936 16.2849 3.18226C16.5097 3.31412 16.6809 3.37467 16.9065 3.41634C16.9384 3.42224 16.9693 3.4275 17.0179 3.43546C17.1378 3.45511 17.182 3.46266 17.2387 3.47437C17.1862 3.39834 17.1344 3.29907 17.129 3.26641L17.1411 3.25402C17.2538 3.27026 17.3615 3.3206 17.6331 3.48951C17.764 3.57097 17.9239 3.61884 18.312 3.70914L18.3299 3.71331C18.6432 3.78621 18.7824 3.82458 18.917 3.88381C18.9872 3.91473 19.0692 3.93407 19.167 3.94533C19.2331 3.95295 19.2809 3.95554 19.402 3.95981ZM19.652 4.0163C19.6521 4.01424 19.6522 4.01217 19.6523 4.01008L19.6569 4.01951C19.6553 4.01841 19.6537 4.01734 19.652 4.0163ZM15.6109 4.51933C15.7668 4.54043 15.9606 4.49541 16.1677 4.41062L16.1648 4.38998C15.5217 4.31782 14.7924 3.90839 14.7293 3.54665C14.8754 3.76151 15.0764 3.8624 15.4843 3.98191L15.4928 3.96231C15.1485 3.75966 14.9437 3.4993 14.9119 3.28305C15.1927 3.54895 15.5269 3.75103 15.8286 3.80189L15.8354 3.78179C15.6034 3.65793 15.304 3.30435 15.2018 3.04081C15.4118 3.21431 15.846 3.44461 16.1271 3.51885L16.1365 3.49998C15.8732 3.2933 15.5968 2.93071 15.5892 2.73388C15.7005 2.83893 15.9294 2.99853 16.2741 3.20083C16.5011 3.33401 16.6747 3.39539 16.9026 3.43749C16.9347 3.44342 16.9657 3.4487 17.0144 3.45668C17.1521 3.47925 17.1897 3.48581 17.2613 3.50107L17.2721 3.48413C17.2232 3.41824 17.1701 3.32191 17.1544 3.27793C17.258 3.29624 17.3661 3.34872 17.6218 3.50778C17.7555 3.59102 17.9164 3.63916 18.3072 3.73009L18.3251 3.73426C18.637 3.80683 18.7755 3.84501 18.9084 3.9035C18.9808 3.9354 19.0648 3.95521 19.1645 3.9667C19.2314 3.97441 19.2796 3.97701 19.4013 3.9813C19.5538 3.98669 19.6148 3.99363 19.652 4.0163C19.6466 4.12569 19.6516 4.20537 19.6704 4.2672C19.6263 4.43048 19.6499 4.56026 19.7214 4.63242C19.7898 4.70123 19.802 4.71979 19.8103 4.77759C19.8207 4.85162 19.8524 4.91564 19.9011 4.95493C19.9424 4.98835 19.9741 5.04253 19.9793 5.07984C19.9845 5.11681 20.1331 5.26514 20.2017 5.30689C20.2096 5.3116 20.2153 5.31834 20.2226 5.33069L20.2365 5.35564C20.243 5.36705 20.2493 5.37689 20.2568 5.38691C20.2316 5.51481 20.2463 5.64986 20.2941 5.84461C20.1411 5.96481 19.9737 6.01454 19.8581 5.97798C19.7488 5.94341 19.7127 5.83874 19.7774 5.70532L19.7611 5.69222C19.6308 5.79672 19.4436 5.85892 19.2887 5.85806C19.1389 5.85723 19.0673 5.79952 19.1139 5.70541L19.1008 5.69047C18.7177 5.82494 18.5255 5.75269 18.5924 5.58768L18.5785 5.57364C18.2644 5.69935 18.0153 5.61481 18.0768 5.49087L18.0644 5.47571C17.8035 5.54697 17.5747 5.52492 17.5351 5.46096C17.51 5.42033 17.5709 5.31172 17.6488 5.24751L17.6384 5.2291C17.5117 5.27552 17.3842 5.28318 17.2377 5.26108C17.183 5.25275 17.1584 5.2411 17.1536 5.22658C17.15 5.21566 17.152 5.20963 17.172 5.16577L17.1751 5.1589C17.2298 5.03537 17.25 4.99993 17.3222 4.93223L17.3351 4.92056L17.3259 4.90194C17.0122 4.96394 16.7448 4.97478 16.5584 4.91193L16.5308 4.90304C16.5085 4.89564 16.4949 4.88923 16.4882 4.88216C16.4819 4.87563 16.4827 4.86907 16.4949 4.85677C16.563 4.78818 16.6947 4.69531 16.8249 4.63954L16.8192 4.61902C16.3039 4.69533 15.7932 4.67667 15.6109 4.51933ZM15.6109 4.51933C15.6022 4.51184 15.5942 4.50403 15.5871 4.49591L15.5769 4.51356C15.588 4.51585 15.5993 4.51777 15.6109 4.51933ZM17.1544 3.27793C17.1522 3.27185 17.1508 3.26678 17.1501 3.26292L17.1381 3.27531C17.1435 3.27609 17.1489 3.27696 17.1544 3.27793ZM15.5892 2.73388C15.5889 2.72558 15.5891 2.71757 15.5897 2.70989L15.5715 2.71654C15.577 2.72215 15.5829 2.72793 15.5892 2.73388ZM15.2018 3.04081C15.1968 3.02796 15.1923 3.01532 15.1883 3.00293L15.1709 3.01426C15.1806 3.02294 15.1909 3.0318 15.2018 3.04081ZM14.9119 3.28305C14.9105 3.27329 14.9094 3.26362 14.9087 3.25404L14.8905 3.2626C14.8976 3.26945 14.9047 3.27627 14.9119 3.28305ZM14.7293 3.54665C14.7267 3.53214 14.7253 3.51771 14.7249 3.50337L14.7051 3.50928C14.713 3.52212 14.721 3.53456 14.7293 3.54665Z" fill="black"/>
<path fill-rule="evenodd" clip-rule="evenodd" d="M20.1587 3.51911C20.116 3.62687 20.0922 3.85488 20.105 3.94388C20.1073 3.96093 20.107 3.96524 20.0995 4.03684C20.0858 4.16739 20.0912 4.26641 20.1344 4.39432L20.1547 4.38742C20.1127 4.26292 20.1074 4.16683 20.1208 4.03909C20.1287 3.96425 20.1289 3.96063 20.1262 3.94085C20.1139 3.85545 20.1374 3.63123 20.1787 3.52706L20.1587 3.51911ZM19.8296 4.09419C19.8236 4.01325 19.832 3.90786 19.854 3.83216L19.8745 3.83817C19.8533 3.91121 19.8452 4.01408 19.8509 4.09262L19.8296 4.09419ZM19.8442 4.22755C19.8266 4.30259 19.8396 4.4772 19.8636 4.57377L19.8844 4.56857C19.8612 4.47502 19.8484 4.30358 19.8651 4.23247L19.8442 4.22755ZM19.92 4.8051C19.9101 4.78926 19.9025 4.77434 19.8977 4.76033L19.9179 4.75283C19.9221 4.76504 19.9289 4.77848 19.938 4.79297C19.9494 4.81112 19.9641 4.83045 19.9818 4.85111C19.9965 4.86819 20.0084 4.88103 20.0313 4.90483L20.0161 4.92051C19.993 4.89642 19.9808 4.88336 19.9658 4.86588C19.9474 4.84446 19.9321 4.8243 19.92 4.8051ZM20.0034 4.35596C19.9936 4.48071 20.062 4.71748 20.1316 4.79775C20.1469 4.93055 20.239 5.12062 20.3689 5.25161L20.3841 5.23644C20.2575 5.10882 20.1676 4.92313 20.1504 4.78932C20.0822 4.70795 20.0154 4.4769 20.0248 4.35765L20.0034 4.35596ZM19.9745 4.21689C19.9634 4.13805 19.9608 4.05899 19.9698 4.00875L19.9908 4.01255C19.9823 4.06008 19.9849 4.13711 19.9957 4.21388L19.9745 4.21689ZM20.3083 4.34526C20.2625 4.19171 20.2609 3.82299 20.3081 3.6279L20.3289 3.63298C20.2826 3.82451 20.2842 4.18937 20.3288 4.3391L20.3083 4.34526ZM20.25 4.40312C20.2241 4.51765 20.2269 4.65026 20.26 4.75005L20.2803 4.74325C20.2485 4.6474 20.2459 4.51876 20.2709 4.40787L20.25 4.40312ZM20.639 4.22739C20.5106 4.08394 20.4328 3.87004 20.4381 3.70304L20.4595 3.70373C20.4544 3.86519 20.5302 4.07369 20.655 4.21301L20.639 4.22739ZM20.4044 4.23896C20.3896 4.42425 20.4002 4.59445 20.4339 4.69169C20.4426 4.71679 20.4487 4.74728 20.4573 4.80316L20.4656 4.85757C20.469 4.87901 20.4721 4.89705 20.4754 4.91435C20.4916 4.99872 20.5128 5.06081 20.5465 5.1088L20.564 5.09642C20.5325 5.05145 20.5121 4.99192 20.4964 4.91029C20.4932 4.89325 20.4901 4.87543 20.4868 4.85421L20.4785 4.79988C20.4697 4.74272 20.4634 4.71137 20.4541 4.68463C20.4216 4.59075 20.4111 4.42326 20.4257 4.24067L20.4044 4.23896ZM20.5769 4.54108L20.5689 4.51062L20.5896 4.50509L20.5977 4.53569C20.6088 4.57879 20.6154 4.61129 20.6184 4.64374C20.6228 4.69057 20.6186 4.731 20.6037 4.76556L20.584 4.75699C20.5974 4.72619 20.6012 4.68927 20.5971 4.64575C20.5942 4.61469 20.5878 4.58317 20.5769 4.54108ZM20.6947 4.36958C20.7303 4.48669 20.7525 4.62998 20.7474 4.69227L20.7687 4.69403C20.7741 4.62863 20.7515 4.4828 20.7152 4.3633L20.6947 4.36958ZM20.8455 5.31749C20.8013 5.23988 20.7613 5.11591 20.7522 5.01585L20.7735 5.01389C20.7824 5.11082 20.8214 5.23184 20.8641 5.30683L20.8455 5.31749ZM20.5933 5.31074C20.6337 5.4327 20.7032 5.55863 20.766 5.60826L20.7793 5.59137C20.7205 5.54496 20.6528 5.42226 20.6136 5.30395L20.5933 5.31074ZM21.1876 5.65206C21.1447 5.5221 21.1166 5.45896 21.0488 5.36239L21.0663 5.35001C21.1355 5.44864 21.1644 5.51351 21.208 5.64529L21.1876 5.65206Z" fill="black"/>
<path fill-rule="evenodd" clip-rule="evenodd" d="M20.2642 5.39117C20.2776 5.39259 20.2859 5.39312 20.3089 5.39427C20.3623 5.39695 20.381 5.40238 20.4051 5.42785C20.4209 5.44464 20.4366 5.47002 20.4536 5.50696C20.5129 5.63591 20.675 5.83306 20.7697 5.89448L20.7696 5.89453C20.8951 6.1153 20.9508 6.40671 20.9119 6.56312C20.9007 6.49431 20.8617 6.44136 20.8016 6.39798C20.7782 6.38113 20.7633 6.37256 20.7228 6.35093C20.6691 6.39789 20.5908 6.45192 20.5513 6.46037L20.5558 6.4814C20.6004 6.47187 20.6822 6.41541 20.7257 6.36769C20.7454 6.38497 20.7584 6.394 20.7729 6.40402L20.7891 6.41545C20.8451 6.45583 20.8807 6.50428 20.8908 6.56688L20.9118 6.56347L20.9104 6.56889L20.9311 6.57451C20.9727 6.4202 20.9224 6.1365 20.8038 5.91231C20.9499 5.97958 21.0433 6.0554 21.0615 6.16233L21.0819 6.16491L21.0924 6.14137C21.1411 6.03164 21.1596 5.95623 21.141 5.87836L21.1429 5.88057L21.16 5.90121C21.2137 5.96594 21.2533 6.01357 21.2826 6.04957L21.2806 6.04985C21.2835 6.07034 21.2862 6.10153 21.2894 6.14909C21.2899 6.15758 21.2915 6.18217 21.2933 6.21011C21.2957 6.24808 21.2985 6.29226 21.2997 6.31065C21.3074 6.42363 21.3151 6.49889 21.3256 6.54798L21.3466 6.54346C21.3364 6.49573 21.3287 6.42111 21.3211 6.30919C21.3199 6.29087 21.3171 6.24683 21.3147 6.20889C21.3129 6.18087 21.3113 6.15618 21.3108 6.14764C21.3088 6.11887 21.3071 6.09602 21.3053 6.07777C21.351 6.13506 21.3629 6.15512 21.3691 6.17681C21.371 6.18332 21.3723 6.18997 21.3739 6.19782L21.3739 6.19782L21.3739 6.19782L21.3757 6.2066C21.3935 6.2921 21.4622 6.40936 21.5312 6.48469L21.547 6.47015C21.4804 6.39743 21.4136 6.28342 21.3966 6.20218L21.3944 6.19091C21.3927 6.18241 21.3912 6.17524 21.3892 6.16824C21.3786 6.13084 21.3514 6.09814 21.1792 5.89073L21.1792 5.89073L21.1792 5.89073L21.1792 5.89073L21.1792 5.89072L21.1593 5.86681C21.1447 5.84918 21.1315 5.83303 21.119 5.81744L21.1009 5.82867C21.1435 5.92161 21.1316 5.99886 21.0752 6.12731C21.0433 6.02487 20.9457 5.95244 20.8012 5.88748C20.7177 5.85003 20.5355 5.63361 20.4731 5.49795C20.4552 5.45906 20.4383 5.43179 20.4206 5.41306C20.3918 5.38251 20.3684 5.37572 20.31 5.3728C20.2874 5.37167 20.2793 5.37115 20.2665 5.36978L20.2642 5.39117ZM21.3053 6.07777C21.3042 6.06552 21.303 6.05534 21.3018 6.04684L21.2826 6.04957C21.291 6.05988 21.2985 6.06924 21.3053 6.07777ZM20.9118 6.56347L20.9119 6.56345L20.9119 6.56312L20.9118 6.56347ZM20.8038 5.91231L20.7924 5.90711C20.7854 5.90397 20.7778 5.89972 20.7697 5.89448L20.7883 5.88388C20.7936 5.89324 20.7988 5.90272 20.8038 5.91231ZM20.4144 5.71711C20.452 5.83058 20.4818 5.96682 20.4849 6.04566L20.5063 6.04483C20.5032 5.96364 20.4729 5.82556 20.4348 5.71033L20.4144 5.71711ZM20.7393 6.27653C20.7359 6.21288 20.696 6.04621 20.6562 5.93516L20.6764 5.92789C20.7168 6.04074 20.7572 6.20933 20.7607 6.27539L20.7393 6.27653ZM21.1136 6.23776C21.1447 6.31297 21.1644 6.43169 21.1581 6.50244L21.1795 6.50435C21.1861 6.43005 21.1658 6.30785 21.1334 6.22951L21.1136 6.23776Z" fill="black"/>
</g>
</svg>
