<?xml version="1.0" encoding="utf-8"?>
<!-- Generator: Adobe Illustrator 23.0.1, SVG Export Plug-In . SVG Version: 6.00 Build 0)  -->
<svg version="1.1" id="Livello_1" xmlns="http://www.w3.org/2000/svg" xmlns:xlink="http://www.w3.org/1999/xlink" x="0px" y="0px"
	 viewBox="0 0 841.9 595.3" style="enable-background:new 0 0 841.9 595.3;" xml:space="preserve">
<style type="text/css">
	.st0{opacity:0.9;fill:url(#Combined-Shape-Copy-3_1_);enable-background:new    ;}
</style>
<g id="DEF">
	<g transform="translate(-118 -9251)">
		<g id="Group-76" transform="translate(118 9271)">
			
				<linearGradient id="Combined-Shape-Copy-3_1_" gradientUnits="userSpaceOnUse" x1="-137.7201" y1="1486.8877" x2="-133.4191" y2="1482.5867" gradientTransform="matrix(98.0001 0 0 -100.0003 13677.0107 148790.3906)">
				<stop  offset="0" style="stop-color:#32FBFC"/>
				<stop  offset="1" style="stop-color:#147AFF"/>
			</linearGradient>
			<path id="Combined-Shape-Copy-3" class="st0" d="M638.7,355.4c-41.1,28-88.2,48.1-138.6,58.4c-26,5.3-52.4,7.9-78.9,7.9
				c-35.5,0-70-4.7-102.7-13.6c-8.4-2.3-16.8-4.7-24.7-7.5v-2.3c0-7.9,0.5-15.9,0.9-23.4c5.6-80.9,39.2-153.8,91-209.4
				c6.5,5.1,13.1,10.3,18.7,15.9c-49.9,53.3-82.1,123.9-85.9,201.9c33.4,9.6,68,14.5,102.7,14.5c27.1,0,53.7-2.8,79.4-8.4
				c45.3-9.8,87.3-28.5,124.2-53.3C626.1,344.2,631.2,351.2,638.7,355.4L638.7,355.4z M535.5,301.6c-7.5,3.3-15.4,6.1-22.9,8.9
				c-21-73.4-68.1-135.6-130.2-176.7c-44.8,43-78.9,96.8-97.6,157.5c-10.5,34.9-15.9,71.1-15.9,107.5c0,8.9,0.5,17.8,0.9,26.2
				c0.5,0-6.1-1.9-10.3-1.9c-5.1,0-9.8,1.4-14,3.3c-0.5-9.4-0.9-18.7-0.9-28c0-42.1,6.5-82.3,18.7-120.1
				c19.6-60.3,53.2-114.5,97.6-158c6.1-6.1,12.6-11.7,19.1-17.3c7.5,4.2,14.5,8.9,21.9,13.6C465.1,160.4,513.1,225.4,535.5,301.6
				L535.5,301.6z M592,326.9c-7.5,4.2-14.9,8.4-22.9,12.2c-22.4,10.8-46.2,19.2-70.9,25.2c-7.9,1.9-15.9,3.3-24.3,4.7
				c-8,1.4-16.1,2.3-24.3,2.8c-9.3,0.9-19.1,1.4-28.9,1.4c-9.3,0-18.7-0.5-28-0.9c-8.1-0.4-16.2-1.4-24.3-2.8
				c-7.9-1.4-16.3-2.8-24.3-4.7c0.9-8.4,2.3-16.4,3.7-24.3c7.9,1.9,15.9,3.3,24.3,4.7c7.9,1.4,16.3,2.3,24.3,2.8
				c7.9,0.5,15.9,0.9,24.3,0.9c8.4,0,16.8-0.5,25.2-0.9c8.1-0.4,16.2-1.4,24.3-2.8c8.4-1.4,16.3-2.8,24.3-4.7
				c24.3-5.6,47.6-14.5,69.5-25.7c-3.7-16.4-8.9-32.3-14.5-47.7c-10.3-27.1-24.3-52.8-40.1-76.2c-4.7-7-9.8-13.6-14.5-19.6
				c-5-6.4-10.3-12.7-15.9-18.7c-30.8-33.7-67.5-61.4-108.3-81.8c5.6-5.6,9.3-13.6,9.3-22v-0.9c46,22.3,87.1,53.6,120.9,92.1
				c5.6,6.5,10.7,12.6,15.9,19.6c5.1,6.5,9.9,13.2,14.5,20.1c15.9,23.4,29.4,48.1,39.7,74.8c6.1,15.4,11.7,31.8,15.9,48.2
				C588.3,310,590.2,318.4,592,326.9L592,326.9z M361,47.8c0.1,6.7-5.3,12.1-12,12.2c-0.1,0-0.1,0-0.2,0c-7,0-12.1-5.6-12.1-12.2
				c0-6.5,5.6-12.2,12.1-12.2C355.4,35.2,361,40.8,361,47.8L361,47.8z M666.2,328.3c0,6.7-5.3,12.1-12,12.2c-0.1,0-0.1,0-0.2,0
				c-6.5,0-12.1-5.6-12.1-12.2c0-6.5,5.6-12.2,12.1-12.2C660.6,316.1,666.2,321.7,666.2,328.3z M271.4,453.5
				c0,6.5-5.6,12.2-12.1,12.2c-7,0-12.1-5.6-12.1-12.2c-0.1-6.7,5.3-12.1,12-12.2c0.1,0,0.1,0,0.2,0
				C265.8,441.4,271.4,447,271.4,453.5z"/>
		</g>
	</g>
</g>
</svg>
